solid ASCII
  facet normal -2.053587e-04 3.623542e-02 9.993433e-01
    outer loop
      vertex   -5.099420e+01 -8.953766e+01 -7.014191e+01
      vertex   -5.099420e+01 -8.952100e+01 -7.014251e+01
      vertex   -5.219414e+01 -8.950413e+01 -7.014337e+01
    endloop
  endfacet
  facet normal 2.947033e-04 7.171378e-02 9.974252e-01
    outer loop
      vertex   -5.219414e+01 -8.950413e+01 -7.014337e+01
      vertex   -5.099420e+01 -8.952100e+01 -7.014251e+01
      vertex   -5.099420e+01 -8.945612e+01 -7.014718e+01
    endloop
  endfacet
  facet normal -3.270279e-04 8.715574e-02 9.961946e-01
    outer loop
      vertex   -5.219414e+01 -8.950413e+01 -7.014337e+01
      vertex   -5.099420e+01 -8.945612e+01 -7.014718e+01
      vertex   -5.219414e+01 -8.943749e+01 -7.014920e+01
    endloop
  endfacet
  facet normal 3.144517e-04 1.279902e-01 9.917754e-01
    outer loop
      vertex   -5.219414e+01 -8.943749e+01 -7.014920e+01
      vertex   -5.099420e+01 -8.945612e+01 -7.014718e+01
      vertex   -5.099420e+01 -8.939161e+01 -7.015550e+01
    endloop
  endfacet
  facet normal -3.455326e-04 1.449319e-01 9.894416e-01
    outer loop
      vertex   -5.219414e+01 -8.943749e+01 -7.014920e+01
      vertex   -5.099420e+01 -8.939161e+01 -7.015550e+01
      vertex   -5.219414e+01 -8.937130e+01 -7.015890e+01
    endloop
  endfacet
  facet normal 3.317131e-04 1.838571e-01 9.829529e-01
    outer loop
      vertex   -5.219414e+01 -8.937130e+01 -7.015890e+01
      vertex   -5.099420e+01 -8.939161e+01 -7.015550e+01
      vertex   -5.099420e+01 -8.932768e+01 -7.016746e+01
    endloop
  endfacet
  facet normal -3.615507e-04 2.022176e-01 9.793406e-01
    outer loop
      vertex   -5.219414e+01 -8.937130e+01 -7.015890e+01
      vertex   -5.099420e+01 -8.932768e+01 -7.016746e+01
      vertex   -5.219414e+01 -8.930579e+01 -7.017242e+01
    endloop
  endfacet
  facet normal 3.464879e-04 2.391359e-01 9.709860e-01
    outer loop
      vertex   -5.219414e+01 -8.930579e+01 -7.017242e+01
      vertex   -5.099420e+01 -8.932768e+01 -7.016746e+01
      vertex   -5.099420e+01 -8.926452e+01 -7.018301e+01
    endloop
  endfacet
  facet normal -3.750822e-04 2.588190e-01 9.659258e-01
    outer loop
      vertex   -5.219414e+01 -8.930579e+01 -7.017242e+01
      vertex   -5.099420e+01 -8.926452e+01 -7.018301e+01
      vertex   -5.219414e+01 -8.924118e+01 -7.018974e+01
    endloop
  endfacet
  facet normal 3.587760e-04 2.936497e-01 9.559130e-01
    outer loop
      vertex   -5.219414e+01 -8.924118e+01 -7.018974e+01
      vertex   -5.099420e+01 -8.926452e+01 -7.018301e+01
      vertex   -5.099420e+01 -8.920235e+01 -7.020211e+01
    endloop
  endfacet
  facet normal -3.861270e-04 3.145447e-01 9.492426e-01
    outer loop
      vertex   -5.219414e+01 -8.924118e+01 -7.018974e+01
      vertex   -5.099420e+01 -8.920235e+01 -7.020211e+01
      vertex   -5.219414e+01 -8.917768e+01 -7.021078e+01
    endloop
  endfacet
  facet normal 3.685775e-04 3.472242e-01 9.377821e-01
    outer loop
      vertex   -5.219414e+01 -8.917768e+01 -7.021078e+01
      vertex   -5.099420e+01 -8.920235e+01 -7.020211e+01
      vertex   -5.099420e+01 -8.914135e+01 -7.022470e+01
    endloop
  endfacet
  facet normal -3.946851e-04 3.692061e-01 9.293475e-01
    outer loop
      vertex   -5.219414e+01 -8.917768e+01 -7.021078e+01
      vertex   -5.099420e+01 -8.914135e+01 -7.022470e+01
      vertex   -5.219414e+01 -8.911551e+01 -7.023548e+01
    endloop
  endfacet
  facet normal 3.758923e-04 3.996879e-01 9.166512e-01
    outer loop
      vertex   -5.219414e+01 -8.911551e+01 -7.023548e+01
      vertex   -5.099420e+01 -8.914135e+01 -7.022470e+01
      vertex   -5.099420e+01 -8.908173e+01 -7.025070e+01
    endloop
  endfacet
  facet normal -4.007566e-04 4.226182e-01 9.063077e-01
    outer loop
      vertex   -5.219414e+01 -8.911551e+01 -7.023548e+01
      vertex   -5.099420e+01 -8.908173e+01 -7.025070e+01
      vertex   -5.219414e+01 -8.905488e+01 -7.026375e+01
    endloop
  endfacet
  facet normal 3.807204e-04 4.508730e-01 8.925880e-01
    outer loop
      vertex   -5.219414e+01 -8.905488e+01 -7.026375e+01
      vertex   -5.099420e+01 -8.908173e+01 -7.025070e+01
      vertex   -5.099420e+01 -8.902367e+01 -7.028002e+01
    endloop
  endfacet
  facet normal -4.043413e-04 4.746003e-01 8.802013e-01
    outer loop
      vertex   -5.219414e+01 -8.905488e+01 -7.026375e+01
      vertex   -5.099420e+01 -8.902367e+01 -7.028002e+01
      vertex   -5.219414e+01 -8.899600e+01 -7.029550e+01
    endloop
  endfacet
  facet normal 3.830617e-04 5.006158e-01 8.656695e-01
    outer loop
      vertex   -5.219414e+01 -8.899600e+01 -7.029550e+01
      vertex   -5.099420e+01 -8.902367e+01 -7.028002e+01
      vertex   -5.099420e+01 -8.896737e+01 -7.031258e+01
    endloop
  endfacet
  facet normal -4.054393e-04 5.249765e-01 8.511166e-01
    outer loop
      vertex   -5.219414e+01 -8.899600e+01 -7.029550e+01
      vertex   -5.099420e+01 -8.896737e+01 -7.031258e+01
      vertex   -5.219414e+01 -8.893906e+01 -7.033061e+01
    endloop
  endfacet
  facet normal 3.829163e-04 5.487571e-01 8.359817e-01
    outer loop
      vertex   -5.219414e+01 -8.893906e+01 -7.033061e+01
      vertex   -5.099420e+01 -8.896737e+01 -7.031258e+01
      vertex   -5.099420e+01 -8.891299e+01 -7.034828e+01
    endloop
  endfacet
  facet normal -4.040505e-04 5.735764e-01 8.191520e-01
    outer loop
      vertex   -5.219414e+01 -8.893906e+01 -7.033061e+01
      vertex   -5.099420e+01 -8.891299e+01 -7.034828e+01
      vertex   -5.219414e+01 -8.888427e+01 -7.036898e+01
    endloop
  endfacet
  facet normal 3.802842e-04 5.951430e-01 8.036197e-01
    outer loop
      vertex   -5.219414e+01 -8.888427e+01 -7.036898e+01
      vertex   -5.099420e+01 -8.891299e+01 -7.034828e+01
      vertex   -5.099420e+01 -8.886072e+01 -7.038699e+01
    endloop
  endfacet
  facet normal -4.001751e-04 6.202354e-01 7.844156e-01
    outer loop
      vertex   -5.219414e+01 -8.888427e+01 -7.036898e+01
      vertex   -5.099420e+01 -8.886072e+01 -7.038699e+01
      vertex   -5.219414e+01 -8.883179e+01 -7.041047e+01
    endloop
  endfacet
  facet normal 3.751654e-04 6.396251e-01 7.686869e-01
    outer loop
      vertex   -5.219414e+01 -8.883179e+01 -7.041047e+01
      vertex   -5.099420e+01 -8.886072e+01 -7.038699e+01
      vertex   -5.099420e+01 -8.881073e+01 -7.042859e+01
    endloop
  endfacet
  facet normal -3.938129e-04 6.647958e-01 7.470250e-01
    outer loop
      vertex   -5.219414e+01 -8.883179e+01 -7.041047e+01
      vertex   -5.099420e+01 -8.881073e+01 -7.042859e+01
      vertex   -5.219414e+01 -8.878182e+01 -7.045494e+01
    endloop
  endfacet
  facet normal 3.675598e-04 6.820610e-01 7.312952e-01
    outer loop
      vertex   -5.219414e+01 -8.878182e+01 -7.045494e+01
      vertex   -5.099420e+01 -8.881073e+01 -7.042859e+01
      vertex   -5.099420e+01 -8.876316e+01 -7.047295e+01
    endloop
  endfacet
  facet normal -3.849640e-04 7.071067e-01 7.071067e-01
    outer loop
      vertex   -5.219414e+01 -8.878182e+01 -7.045494e+01
      vertex   -5.099420e+01 -8.876316e+01 -7.047295e+01
      vertex   -5.219414e+01 -8.873452e+01 -7.050225e+01
    endloop
  endfacet
  facet normal 3.574676e-04 7.223151e-01 6.915640e-01
    outer loop
      vertex   -5.219414e+01 -8.873452e+01 -7.050225e+01
      vertex   -5.099420e+01 -8.876316e+01 -7.047295e+01
      vertex   -5.099420e+01 -8.871818e+01 -7.051993e+01
    endloop
  endfacet
  facet normal -3.736284e-04 7.470250e-01 6.647958e-01
    outer loop
      vertex   -5.219414e+01 -8.873452e+01 -7.050225e+01
      vertex   -5.099420e+01 -8.871818e+01 -7.051993e+01
      vertex   -5.219414e+01 -8.869005e+01 -7.055222e+01
    endloop
  endfacet
  facet normal 3.448887e-04 7.602585e-01 6.496206e-01
    outer loop
      vertex   -5.219414e+01 -8.869005e+01 -7.055222e+01
      vertex   -5.099420e+01 -8.871818e+01 -7.051993e+01
      vertex   -5.099420e+01 -8.867592e+01 -7.056938e+01
    endloop
  endfacet
  facet normal -3.598061e-04 7.844156e-01 6.202355e-01
    outer loop
      vertex   -5.219414e+01 -8.869005e+01 -7.055222e+01
      vertex   -5.099420e+01 -8.867592e+01 -7.056938e+01
      vertex   -5.219414e+01 -8.864856e+01 -7.060469e+01
    endloop
  endfacet
  facet normal 3.298231e-04 7.957698e-01 6.055991e-01
    outer loop
      vertex   -5.219414e+01 -8.864856e+01 -7.060469e+01
      vertex   -5.099420e+01 -8.867592e+01 -7.056938e+01
      vertex   -5.099420e+01 -8.863653e+01 -7.062114e+01
    endloop
  endfacet
  facet normal -3.434973e-04 8.191520e-01 5.735764e-01
    outer loop
      vertex   -5.219414e+01 -8.864856e+01 -7.060469e+01
      vertex   -5.099420e+01 -8.863653e+01 -7.062114e+01
      vertex   -5.219414e+01 -8.861019e+01 -7.065949e+01
    endloop
  endfacet
  facet normal 3.122710e-04 8.287356e-01 5.596403e-01
    outer loop
      vertex   -5.219414e+01 -8.861019e+01 -7.065949e+01
      vertex   -5.099420e+01 -8.863653e+01 -7.062114e+01
      vertex   -5.099420e+01 -8.860013e+01 -7.067505e+01
    endloop
  endfacet
  facet normal -3.247019e-04 8.511166e-01 5.249766e-01
    outer loop
      vertex   -5.219414e+01 -8.861019e+01 -7.065949e+01
      vertex   -5.099420e+01 -8.860013e+01 -7.067505e+01
      vertex   -5.219414e+01 -8.857507e+01 -7.071642e+01
    endloop
  endfacet
  facet normal 2.922323e-04 8.590502e-01 5.118912e-01
    outer loop
      vertex   -5.219414e+01 -8.857507e+01 -7.071642e+01
      vertex   -5.099420e+01 -8.860013e+01 -7.067505e+01
      vertex   -5.099420e+01 -8.856684e+01 -7.073092e+01
    endloop
  endfacet
  facet normal -3.034199e-04 8.802014e-01 4.746003e-01
    outer loop
      vertex   -5.219414e+01 -8.857507e+01 -7.071642e+01
      vertex   -5.099420e+01 -8.856684e+01 -7.073092e+01
      vertex   -5.219414e+01 -8.854332e+01 -7.077531e+01
    endloop
  endfacet
  facet normal 2.697071e-04 8.866168e-01 4.625046e-01
    outer loop
      vertex   -5.219414e+01 -8.854332e+01 -7.077531e+01
      vertex   -5.099420e+01 -8.856684e+01 -7.073092e+01
      vertex   -5.099420e+01 -8.853676e+01 -7.078859e+01
    endloop
  endfacet
  facet normal -2.796515e-04 9.063078e-01 4.226182e-01
    outer loop
      vertex   -5.219414e+01 -8.854332e+01 -7.077531e+01
      vertex   -5.099420e+01 -8.853676e+01 -7.078859e+01
      vertex   -5.219414e+01 -8.851505e+01 -7.083593e+01
    endloop
  endfacet
  facet normal 2.446955e-04 9.113472e-01 4.116385e-01
    outer loop
      vertex   -5.219414e+01 -8.851505e+01 -7.083593e+01
      vertex   -5.099420e+01 -8.853676e+01 -7.078859e+01
      vertex   -5.099420e+01 -8.850998e+01 -7.084787e+01
    endloop
  endfacet
  facet normal -2.533967e-04 9.293475e-01 3.692061e-01
    outer loop
      vertex   -5.219414e+01 -8.851505e+01 -7.083593e+01
      vertex   -5.099420e+01 -8.850998e+01 -7.084787e+01
      vertex   -5.219414e+01 -8.849035e+01 -7.089810e+01
    endloop
  endfacet
  facet normal 2.171975e-04 9.331622e-01 3.594555e-01
    outer loop
      vertex   -5.219414e+01 -8.849035e+01 -7.089810e+01
      vertex   -5.099420e+01 -8.850998e+01 -7.084787e+01
      vertex   -5.099420e+01 -8.848660e+01 -7.090856e+01
    endloop
  endfacet
  facet normal -2.246555e-04 9.492426e-01 3.145447e-01
    outer loop
      vertex   -5.219414e+01 -8.849035e+01 -7.089810e+01
      vertex   -5.099420e+01 -8.848660e+01 -7.090856e+01
      vertex   -5.219414e+01 -8.846931e+01 -7.096160e+01
    endloop
  endfacet
  facet normal 1.872131e-04 9.519920e-01 3.061227e-01
    outer loop
      vertex   -5.219414e+01 -8.846931e+01 -7.096160e+01
      vertex   -5.099420e+01 -8.848660e+01 -7.090856e+01
      vertex   -5.099420e+01 -8.846669e+01 -7.097048e+01
    endloop
  endfacet
  facet normal -1.934281e-04 9.659258e-01 2.588190e-01
    outer loop
      vertex   -5.219414e+01 -8.846931e+01 -7.096160e+01
      vertex   -5.099420e+01 -8.846669e+01 -7.097048e+01
      vertex   -5.219414e+01 -8.845200e+01 -7.102622e+01
    endloop
  endfacet
  facet normal 1.547426e-04 9.677765e-01 2.518106e-01
    outer loop
      vertex   -5.219414e+01 -8.845200e+01 -7.102622e+01
      vertex   -5.099420e+01 -8.846669e+01 -7.097048e+01
      vertex   -5.099420e+01 -8.845031e+01 -7.103343e+01
    endloop
  endfacet
  facet normal -1.597145e-04 9.793406e-01 2.022176e-01
    outer loop
      vertex   -5.219414e+01 -8.845200e+01 -7.102622e+01
      vertex   -5.099420e+01 -8.845031e+01 -7.103343e+01
      vertex   -5.219414e+01 -8.843847e+01 -7.109173e+01
    endloop
  endfacet
  facet normal 1.197859e-04 9.804651e-01 1.966930e-01
    outer loop
      vertex   -5.219414e+01 -8.843847e+01 -7.109173e+01
      vertex   -5.099420e+01 -8.845031e+01 -7.103343e+01
      vertex   -5.099420e+01 -8.843752e+01 -7.109720e+01
    endloop
  endfacet
  facet normal -1.235147e-04 9.894416e-01 1.449319e-01
    outer loop
      vertex   -5.219414e+01 -8.843847e+01 -7.109173e+01
      vertex   -5.099420e+01 -8.843752e+01 -7.109720e+01
      vertex   -5.219414e+01 -8.842877e+01 -7.115792e+01
    endloop
  endfacet
  facet normal 8.234321e-05 9.900173e-01 1.409462e-01
    outer loop
      vertex   -5.219414e+01 -8.842877e+01 -7.115792e+01
      vertex   -5.099420e+01 -8.843752e+01 -7.109720e+01
      vertex   -5.099420e+01 -8.842835e+01 -7.116160e+01
    endloop
  endfacet
  facet normal -8.482903e-05 9.961947e-01 8.715574e-02
    outer loop
      vertex   -5.219414e+01 -8.842877e+01 -7.115792e+01
      vertex   -5.099420e+01 -8.842835e+01 -7.116160e+01
      vertex   -5.219414e+01 -8.842294e+01 -7.122456e+01
    endloop
  endfacet
  facet normal 4.241453e-05 9.964024e-01 8.474846e-02
    outer loop
      vertex   -5.219414e+01 -8.842294e+01 -7.122456e+01
      vertex   -5.099420e+01 -8.842835e+01 -7.116160e+01
      vertex   -5.099420e+01 -8.842284e+01 -7.122641e+01
    endloop
  endfacet
  facet normal -4.248148e-05 9.995545e-01 2.984641e-02
    outer loop
      vertex   -5.219414e+01 -8.842294e+01 -7.122456e+01
      vertex   -5.099420e+01 -8.842284e+01 -7.122641e+01
      vertex   -5.339408e+01 -8.842100e+01 -7.129142e+01
    endloop
  endfacet
  facet normal -0.000000e+00 9.996001e-01 2.827964e-02
    outer loop
      vertex   -5.339408e+01 -8.842100e+01 -7.129142e+01
      vertex   -5.099420e+01 -8.842284e+01 -7.122641e+01
      vertex   -5.099420e+01 -8.842100e+01 -7.129142e+01
    endloop
  endfacet
  facet normal 5.791628e-05 9.996066e-01 2.804626e-02
    outer loop
      vertex   -5.339408e+01 -8.842100e+01 -7.129142e+01
      vertex   -5.339408e+01 -8.842281e+01 -7.122694e+01
      vertex   -5.219414e+01 -8.842294e+01 -7.122456e+01
    endloop
  endfacet
  facet normal -5.378045e-05 9.964615e-01 8.405052e-02
    outer loop
      vertex   -5.219414e+01 -8.842294e+01 -7.122456e+01
      vertex   -5.339408e+01 -8.842281e+01 -7.122694e+01
      vertex   -5.339408e+01 -8.842823e+01 -7.116267e+01
    endloop
  endfacet
  facet normal 1.075608e-04 9.961947e-01 8.715574e-02
    outer loop
      vertex   -5.219414e+01 -8.842294e+01 -7.122456e+01
      vertex   -5.339408e+01 -8.842823e+01 -7.116267e+01
      vertex   -5.219414e+01 -8.842877e+01 -7.115792e+01
    endloop
  endfacet
  facet normal -1.034248e-04 9.901811e-01 1.397903e-01
    outer loop
      vertex   -5.219414e+01 -8.842877e+01 -7.115792e+01
      vertex   -5.339408e+01 -8.842823e+01 -7.116267e+01
      vertex   -5.339408e+01 -8.843725e+01 -7.109879e+01
    endloop
  endfacet
  facet normal 1.551371e-04 9.894416e-01 1.449319e-01
    outer loop
      vertex   -5.219414e+01 -8.842877e+01 -7.115792e+01
      vertex   -5.339408e+01 -8.843725e+01 -7.109879e+01
      vertex   -5.219414e+01 -8.843847e+01 -7.109173e+01
    endloop
  endfacet
  facet normal -1.489329e-04 9.807853e-01 1.950903e-01
    outer loop
      vertex   -5.219414e+01 -8.843847e+01 -7.109173e+01
      vertex   -5.339408e+01 -8.843725e+01 -7.109879e+01
      vertex   -5.339408e+01 -8.844983e+01 -7.103553e+01
    endloop
  endfacet
  facet normal 1.985770e-04 9.793406e-01 2.022176e-01
    outer loop
      vertex   -5.219414e+01 -8.843847e+01 -7.109173e+01
      vertex   -5.339408e+01 -8.844983e+01 -7.103553e+01
      vertex   -5.219414e+01 -8.845200e+01 -7.102622e+01
    endloop
  endfacet
  facet normal -1.903046e-04 9.683035e-01 2.497765e-01
    outer loop
      vertex   -5.219414e+01 -8.845200e+01 -7.102622e+01
      vertex   -5.339408e+01 -8.844983e+01 -7.103553e+01
      vertex   -5.339408e+01 -8.846594e+01 -7.097306e+01
    endloop
  endfacet
  facet normal 2.378803e-04 9.659258e-01 2.588190e-01
    outer loop
      vertex   -5.219414e+01 -8.845200e+01 -7.102622e+01
      vertex   -5.339408e+01 -8.846594e+01 -7.097306e+01
      vertex   -5.219414e+01 -8.846931e+01 -7.096160e+01
    endloop
  endfacet
  facet normal -2.275396e-04 9.527751e-01 3.036767e-01
    outer loop
      vertex   -5.219414e+01 -8.846931e+01 -7.096160e+01
      vertex   -5.339408e+01 -8.846594e+01 -7.097306e+01
      vertex   -5.339408e+01 -8.848553e+01 -7.091160e+01
    endloop
  endfacet
  facet normal 2.730469e-04 9.492426e-01 3.145447e-01
    outer loop
      vertex   -5.219414e+01 -8.846931e+01 -7.096160e+01
      vertex   -5.339408e+01 -8.848553e+01 -7.091160e+01
      vertex   -5.219414e+01 -8.849035e+01 -7.089810e+01
    endloop
  endfacet
  facet normal -2.606377e-04 9.342489e-01 3.566215e-01
    outer loop
      vertex   -5.219414e+01 -8.849035e+01 -7.089810e+01
      vertex   -5.339408e+01 -8.848553e+01 -7.091160e+01
      vertex   -5.339408e+01 -8.850854e+01 -7.085134e+01
    endloop
  endfacet
  facet normal 3.040766e-04 9.293475e-01 3.692061e-01
    outer loop
      vertex   -5.219414e+01 -8.849035e+01 -7.089810e+01
      vertex   -5.339408e+01 -8.850854e+01 -7.085134e+01
      vertex   -5.219414e+01 -8.851505e+01 -7.083593e+01
    endloop
  endfacet
  facet normal -2.895989e-04 9.127832e-01 4.084442e-01
    outer loop
      vertex   -5.219414e+01 -8.851505e+01 -7.083593e+01
      vertex   -5.339408e+01 -8.850854e+01 -7.085134e+01
      vertex   -5.339408e+01 -8.853488e+01 -7.079246e+01
    endloop
  endfacet
  facet normal 3.309693e-04 9.063077e-01 4.226182e-01
    outer loop
      vertex   -5.219414e+01 -8.851505e+01 -7.083593e+01
      vertex   -5.339408e+01 -8.853488e+01 -7.079246e+01
      vertex   -5.219414e+01 -8.854332e+01 -7.077531e+01
    endloop
  endfacet
  facet normal -3.144230e-04 8.884456e-01 4.589818e-01
    outer loop
      vertex   -5.219414e+01 -8.854332e+01 -7.077531e+01
      vertex   -5.339408e+01 -8.853488e+01 -7.079246e+01
      vertex   -5.339408e+01 -8.856449e+01 -7.073515e+01
    endloop
  endfacet
  facet normal 3.537248e-04 8.802013e-01 4.746003e-01
    outer loop
      vertex   -5.219414e+01 -8.854332e+01 -7.077531e+01
      vertex   -5.339408e+01 -8.856449e+01 -7.073515e+01
      vertex   -5.219414e+01 -8.857507e+01 -7.071642e+01
    endloop
  endfacet
  facet normal -3.351100e-04 8.613126e-01 5.080753e-01
    outer loop
      vertex   -5.219414e+01 -8.857507e+01 -7.071642e+01
      vertex   -5.339408e+01 -8.856449e+01 -7.073515e+01
      vertex   -5.339408e+01 -8.859727e+01 -7.067959e+01
    endloop
  endfacet
  facet normal 3.723431e-04 8.511166e-01 5.249765e-01
    outer loop
      vertex   -5.219414e+01 -8.857507e+01 -7.071642e+01
      vertex   -5.339408e+01 -8.859727e+01 -7.067959e+01
      vertex   -5.219414e+01 -8.861019e+01 -7.065949e+01
    endloop
  endfacet
  facet normal -3.516596e-04 8.314696e-01 5.555702e-01
    outer loop
      vertex   -5.219414e+01 -8.861019e+01 -7.065949e+01
      vertex   -5.339408e+01 -8.859727e+01 -7.067959e+01
      vertex   -5.339408e+01 -8.863310e+01 -7.062595e+01
    endloop
  endfacet
  facet normal 3.868241e-04 8.191520e-01 5.735764e-01
    outer loop
      vertex   -5.219414e+01 -8.861019e+01 -7.065949e+01
      vertex   -5.339408e+01 -8.863310e+01 -7.062595e+01
      vertex   -5.219414e+01 -8.864856e+01 -7.060469e+01
    endloop
  endfacet
  facet normal -3.640719e-04 7.990104e-01 6.013171e-01
    outer loop
      vertex   -5.219414e+01 -8.864856e+01 -7.060469e+01
      vertex   -5.339408e+01 -8.863310e+01 -7.062595e+01
      vertex   -5.339408e+01 -8.867189e+01 -7.057441e+01
    endloop
  endfacet
  facet normal 3.971677e-04 7.844156e-01 6.202354e-01
    outer loop
      vertex   -5.219414e+01 -8.864856e+01 -7.060469e+01
      vertex   -5.339408e+01 -8.867189e+01 -7.057441e+01
      vertex   -5.219414e+01 -8.869005e+01 -7.055222e+01
    endloop
  endfacet
  facet normal -3.723468e-04 7.640373e-01 6.451719e-01
    outer loop
      vertex   -5.219414e+01 -8.869005e+01 -7.055222e+01
      vertex   -5.339408e+01 -8.867189e+01 -7.057441e+01
      vertex   -5.339408e+01 -8.871351e+01 -7.052513e+01
    endloop
  endfacet
  facet normal 4.033739e-04 7.470250e-01 6.647958e-01
    outer loop
      vertex   -5.219414e+01 -8.869005e+01 -7.055222e+01
      vertex   -5.339408e+01 -8.871351e+01 -7.052513e+01
      vertex   -5.219414e+01 -8.873452e+01 -7.050225e+01
    endloop
  endfacet
  facet normal -3.764843e-04 7.266603e-01 6.869969e-01
    outer loop
      vertex   -5.219414e+01 -8.873452e+01 -7.050225e+01
      vertex   -5.339408e+01 -8.871351e+01 -7.052513e+01
      vertex   -5.339408e+01 -8.875783e+01 -7.047825e+01
    endloop
  endfacet
  facet normal 4.054426e-04 7.071067e-01 7.071067e-01
    outer loop
      vertex   -5.219414e+01 -8.873452e+01 -7.050225e+01
      vertex   -5.339408e+01 -8.875783e+01 -7.047825e+01
      vertex   -5.219414e+01 -8.878182e+01 -7.045494e+01
    endloop
  endfacet
  facet normal -3.764843e-04 6.869969e-01 7.266603e-01
    outer loop
      vertex   -5.219414e+01 -8.878182e+01 -7.045494e+01
      vertex   -5.339408e+01 -8.875783e+01 -7.047825e+01
      vertex   -5.339408e+01 -8.880470e+01 -7.043394e+01
    endloop
  endfacet
  facet normal 4.033739e-04 6.647958e-01 7.470250e-01
    outer loop
      vertex   -5.219414e+01 -8.878182e+01 -7.045494e+01
      vertex   -5.339408e+01 -8.880470e+01 -7.043394e+01
      vertex   -5.219414e+01 -8.883179e+01 -7.041047e+01
    endloop
  endfacet
  facet normal -3.723468e-04 6.451719e-01 7.640373e-01
    outer loop
      vertex   -5.219414e+01 -8.883179e+01 -7.041047e+01
      vertex   -5.339408e+01 -8.880470e+01 -7.043394e+01
      vertex   -5.339408e+01 -8.885399e+01 -7.039232e+01
    endloop
  endfacet
  facet normal 3.971677e-04 6.202354e-01 7.844156e-01
    outer loop
      vertex   -5.219414e+01 -8.883179e+01 -7.041047e+01
      vertex   -5.339408e+01 -8.885399e+01 -7.039232e+01
      vertex   -5.219414e+01 -8.888427e+01 -7.036898e+01
    endloop
  endfacet
  facet normal -3.640719e-04 6.013171e-01 7.990104e-01
    outer loop
      vertex   -5.219414e+01 -8.888427e+01 -7.036898e+01
      vertex   -5.339408e+01 -8.885399e+01 -7.039232e+01
      vertex   -5.339408e+01 -8.890553e+01 -7.035353e+01
    endloop
  endfacet
  facet normal 3.868241e-04 5.735764e-01 8.191520e-01
    outer loop
      vertex   -5.219414e+01 -8.888427e+01 -7.036898e+01
      vertex   -5.339408e+01 -8.890553e+01 -7.035353e+01
      vertex   -5.219414e+01 -8.893906e+01 -7.033061e+01
    endloop
  endfacet
  facet normal -3.516596e-04 5.555702e-01 8.314696e-01
    outer loop
      vertex   -5.219414e+01 -8.893906e+01 -7.033061e+01
      vertex   -5.339408e+01 -8.890553e+01 -7.035353e+01
      vertex   -5.339408e+01 -8.895916e+01 -7.031769e+01
    endloop
  endfacet
  facet normal 3.723431e-04 5.249765e-01 8.511166e-01
    outer loop
      vertex   -5.219414e+01 -8.893906e+01 -7.033061e+01
      vertex   -5.339408e+01 -8.895916e+01 -7.031769e+01
      vertex   -5.219414e+01 -8.899600e+01 -7.029550e+01
    endloop
  endfacet
  facet normal -3.351100e-04 5.080753e-01 8.613126e-01
    outer loop
      vertex   -5.219414e+01 -8.899600e+01 -7.029550e+01
      vertex   -5.339408e+01 -8.895916e+01 -7.031769e+01
      vertex   -5.339408e+01 -8.901472e+01 -7.028492e+01
    endloop
  endfacet
  facet normal 3.537248e-04 4.746003e-01 8.802013e-01
    outer loop
      vertex   -5.219414e+01 -8.899600e+01 -7.029550e+01
      vertex   -5.339408e+01 -8.901472e+01 -7.028492e+01
      vertex   -5.219414e+01 -8.905488e+01 -7.026375e+01
    endloop
  endfacet
  facet normal -3.144230e-04 4.589818e-01 8.884456e-01
    outer loop
      vertex   -5.219414e+01 -8.905488e+01 -7.026375e+01
      vertex   -5.339408e+01 -8.901472e+01 -7.028492e+01
      vertex   -5.339408e+01 -8.907203e+01 -7.025531e+01
    endloop
  endfacet
  facet normal 3.309693e-04 4.226182e-01 9.063077e-01
    outer loop
      vertex   -5.219414e+01 -8.905488e+01 -7.026375e+01
      vertex   -5.339408e+01 -8.907203e+01 -7.025531e+01
      vertex   -5.219414e+01 -8.911551e+01 -7.023548e+01
    endloop
  endfacet
  facet normal -2.895989e-04 4.084442e-01 9.127832e-01
    outer loop
      vertex   -5.219414e+01 -8.911551e+01 -7.023548e+01
      vertex   -5.339408e+01 -8.907203e+01 -7.025531e+01
      vertex   -5.339408e+01 -8.913091e+01 -7.022896e+01
    endloop
  endfacet
  facet normal 3.040766e-04 3.692061e-01 9.293475e-01
    outer loop
      vertex   -5.219414e+01 -8.911551e+01 -7.023548e+01
      vertex   -5.339408e+01 -8.913091e+01 -7.022896e+01
      vertex   -5.219414e+01 -8.917768e+01 -7.021078e+01
    endloop
  endfacet
  facet normal -2.606377e-04 3.566215e-01 9.342489e-01
    outer loop
      vertex   -5.219414e+01 -8.917768e+01 -7.021078e+01
      vertex   -5.339408e+01 -8.913091e+01 -7.022896e+01
      vertex   -5.339408e+01 -8.919118e+01 -7.020596e+01
    endloop
  endfacet
  facet normal 2.730469e-04 3.145447e-01 9.492426e-01
    outer loop
      vertex   -5.219414e+01 -8.917768e+01 -7.021078e+01
      vertex   -5.339408e+01 -8.919118e+01 -7.020596e+01
      vertex   -5.219414e+01 -8.924118e+01 -7.018974e+01
    endloop
  endfacet
  facet normal -2.275396e-04 3.036767e-01 9.527751e-01
    outer loop
      vertex   -5.219414e+01 -8.924118e+01 -7.018974e+01
      vertex   -5.339408e+01 -8.919118e+01 -7.020596e+01
      vertex   -5.339408e+01 -8.925264e+01 -7.018637e+01
    endloop
  endfacet
  facet normal 2.378803e-04 2.588190e-01 9.659258e-01
    outer loop
      vertex   -5.219414e+01 -8.924118e+01 -7.018974e+01
      vertex   -5.339408e+01 -8.925264e+01 -7.018637e+01
      vertex   -5.219414e+01 -8.930579e+01 -7.017242e+01
    endloop
  endfacet
  facet normal -1.903046e-04 2.497765e-01 9.683035e-01
    outer loop
      vertex   -5.219414e+01 -8.930579e+01 -7.017242e+01
      vertex   -5.339408e+01 -8.925264e+01 -7.018637e+01
      vertex   -5.339408e+01 -8.931510e+01 -7.017026e+01
    endloop
  endfacet
  facet normal 1.985770e-04 2.022176e-01 9.793406e-01
    outer loop
      vertex   -5.219414e+01 -8.930579e+01 -7.017242e+01
      vertex   -5.339408e+01 -8.931510e+01 -7.017026e+01
      vertex   -5.219414e+01 -8.937130e+01 -7.015890e+01
    endloop
  endfacet
  facet normal -1.489329e-04 1.950903e-01 9.807853e-01
    outer loop
      vertex   -5.219414e+01 -8.937130e+01 -7.015890e+01
      vertex   -5.339408e+01 -8.931510e+01 -7.017026e+01
      vertex   -5.339408e+01 -8.937837e+01 -7.015767e+01
    endloop
  endfacet
  facet normal 1.551371e-04 1.449319e-01 9.894416e-01
    outer loop
      vertex   -5.219414e+01 -8.937130e+01 -7.015890e+01
      vertex   -5.339408e+01 -8.937837e+01 -7.015767e+01
      vertex   -5.219414e+01 -8.943749e+01 -7.014920e+01
    endloop
  endfacet
  facet normal -1.034248e-04 1.397903e-01 9.901811e-01
    outer loop
      vertex   -5.219414e+01 -8.943749e+01 -7.014920e+01
      vertex   -5.339408e+01 -8.937837e+01 -7.015767e+01
      vertex   -5.339408e+01 -8.944224e+01 -7.014866e+01
    endloop
  endfacet
  facet normal 1.075608e-04 8.715574e-02 9.961947e-01
    outer loop
      vertex   -5.219414e+01 -8.943749e+01 -7.014920e+01
      vertex   -5.339408e+01 -8.944224e+01 -7.014866e+01
      vertex   -5.219414e+01 -8.950413e+01 -7.014337e+01
    endloop
  endfacet
  facet normal -5.378045e-05 8.405052e-02 9.964615e-01
    outer loop
      vertex   -5.219414e+01 -8.950413e+01 -7.014337e+01
      vertex   -5.339408e+01 -8.944224e+01 -7.014866e+01
      vertex   -5.339408e+01 -8.950652e+01 -7.014323e+01
    endloop
  endfacet
  facet normal 5.392302e-05 3.005156e-02 9.995483e-01
    outer loop
      vertex   -5.219414e+01 -8.950413e+01 -7.014337e+01
      vertex   -5.339408e+01 -8.950652e+01 -7.014323e+01
      vertex   -5.099420e+01 -8.957100e+01 -7.014142e+01
    endloop
  endfacet
  facet normal -2.310954e-10 2.804626e-02 9.996066e-01
    outer loop
      vertex   -5.099420e+01 -8.957100e+01 -7.014142e+01
      vertex   -5.339408e+01 -8.950652e+01 -7.014323e+01
      vertex   -5.339408e+01 -8.957100e+01 -7.014142e+01
    endloop
  endfacet
  facet normal -1.217465e-03 7.248461e-03 9.999730e-01
    outer loop
      vertex   -5.099420e+01 -8.957100e+01 -7.014142e+01
      vertex   -5.099420e+01 -8.955433e+01 -7.014155e+01
      vertex   -5.219414e+01 -8.950413e+01 -7.014337e+01
    endloop
  endfacet
  facet normal -6.107673e-04 2.174423e-02 9.997634e-01
    outer loop
      vertex   -5.219414e+01 -8.950413e+01 -7.014337e+01
      vertex   -5.099420e+01 -8.955433e+01 -7.014155e+01
      vertex   -5.099420e+01 -8.953766e+01 -7.014191e+01
    endloop
  endfacet
  facet normal -2.311864e-10 -2.544542e-10 1.000000e+00
    outer loop
      vertex   -5.099420e+01 -8.957100e+01 -7.014142e+01
      vertex   -5.339408e+01 -8.957100e+01 -7.014142e+01
      vertex   -5.099408e+01 -9.175154e+01 -7.014142e+01
    endloop
  endfacet
  facet normal 0.000000e+00 0.000000e+00 1.000000e+00
    outer loop
      vertex   -5.099408e+01 -9.175154e+01 -7.014142e+01
      vertex   -5.339408e+01 -8.957100e+01 -7.014142e+01
      vertex   -5.339408e+01 -9.198208e+01 -7.014142e+01
    endloop
  endfacet
  facet normal 0.000000e+00 0.000000e+00 1.000000e+00
    outer loop
      vertex   -5.099408e+01 -9.175154e+01 -7.014142e+01
      vertex   -5.339408e+01 -9.198208e+01 -7.014142e+01
      vertex   -5.099408e+01 -9.198208e+01 -7.014142e+01
    endloop
  endfacet
  facet normal 0.000000e+00 0.000000e+00 1.000000e+00
    outer loop
      vertex   -5.099408e+01 -9.198208e+01 -7.014142e+01
      vertex   -5.339408e+01 -9.198208e+01 -7.014142e+01
      vertex   -5.562718e+01 -9.338208e+01 -7.014142e+01
    endloop
  endfacet
  facet normal 0.000000e+00 0.000000e+00 1.000000e+00
    outer loop
      vertex   -5.099408e+01 -9.198208e+01 -7.014142e+01
      vertex   -5.562718e+01 -9.338208e+01 -7.014142e+01
      vertex   -4.862718e+01 -9.338208e+01 -7.014142e+01
    endloop
  endfacet
  facet normal 0.000000e+00 0.000000e+00 1.000000e+00
    outer loop
      vertex   -5.339408e+01 -9.198208e+01 -7.014142e+01
      vertex   -5.562718e+01 -9.198208e+01 -7.014142e+01
      vertex   -5.562718e+01 -9.338208e+01 -7.014142e+01
    endloop
  endfacet
  facet normal 0.000000e+00 -0.000000e+00 1.000000e+00
    outer loop
      vertex   -4.862718e+01 -9.338208e+01 -7.014142e+01
      vertex   -4.862718e+01 -9.198208e+01 -7.014142e+01
      vertex   -5.099408e+01 -9.198208e+01 -7.014142e+01
    endloop
  endfacet
  facet normal -1.000000e+00 -0.000000e+00 -0.000000e+00
    outer loop
      vertex   -5.339408e+01 -8.957100e+01 -7.014142e+01
      vertex   -5.339408e+01 -8.950652e+01 -7.014323e+01
      vertex   -5.339408e+01 -9.198208e+01 -7.014142e+01
    endloop
  endfacet
  facet normal -1.000000e+00 0.000000e+00 0.000000e+00
    outer loop
      vertex   -5.339408e+01 -9.198208e+01 -7.014142e+01
      vertex   -5.339408e+01 -8.950652e+01 -7.014323e+01
      vertex   -5.339408e+01 -8.944224e+01 -7.014866e+01
    endloop
  endfacet
  facet normal -1.000000e+00 0.000000e+00 0.000000e+00
    outer loop
      vertex   -5.339408e+01 -9.198208e+01 -7.014142e+01
      vertex   -5.339408e+01 -8.944224e+01 -7.014866e+01
      vertex   -5.339408e+01 -8.937837e+01 -7.015767e+01
    endloop
  endfacet
  facet normal -1.000000e+00 -0.000000e+00 -0.000000e+00
    outer loop
      vertex   -5.339408e+01 -8.937837e+01 -7.015767e+01
      vertex   -5.339408e+01 -8.931510e+01 -7.017026e+01
      vertex   -5.339408e+01 -9.198208e+01 -7.014142e+01
    endloop
  endfacet
  facet normal -1.000000e+00 0.000000e+00 0.000000e+00
    outer loop
      vertex   -5.339408e+01 -9.198208e+01 -7.014142e+01
      vertex   -5.339408e+01 -8.931510e+01 -7.017026e+01
      vertex   -5.339408e+01 -8.925264e+01 -7.018637e+01
    endloop
  endfacet
  facet normal -1.000000e+00 0.000000e+00 0.000000e+00
    outer loop
      vertex   -5.339408e+01 -9.198208e+01 -7.014142e+01
      vertex   -5.339408e+01 -8.925264e+01 -7.018637e+01
      vertex   -5.339408e+01 -8.919118e+01 -7.020596e+01
    endloop
  endfacet
  facet normal -1.000000e+00 -0.000000e+00 -0.000000e+00
    outer loop
      vertex   -5.339408e+01 -8.919118e+01 -7.020596e+01
      vertex   -5.339408e+01 -8.913091e+01 -7.022896e+01
      vertex   -5.339408e+01 -9.198208e+01 -7.014142e+01
    endloop
  endfacet
  facet normal -1.000000e+00 0.000000e+00 0.000000e+00
    outer loop
      vertex   -5.339408e+01 -9.198208e+01 -7.014142e+01
      vertex   -5.339408e+01 -8.913091e+01 -7.022896e+01
      vertex   -5.339408e+01 -8.907203e+01 -7.025531e+01
    endloop
  endfacet
  facet normal -1.000000e+00 0.000000e+00 0.000000e+00
    outer loop
      vertex   -5.339408e+01 -9.198208e+01 -7.014142e+01
      vertex   -5.339408e+01 -8.907203e+01 -7.025531e+01
      vertex   -5.339408e+01 -8.901472e+01 -7.028492e+01
    endloop
  endfacet
  facet normal -1.000000e+00 -0.000000e+00 -0.000000e+00
    outer loop
      vertex   -5.339408e+01 -8.901472e+01 -7.028492e+01
      vertex   -5.339408e+01 -8.895916e+01 -7.031769e+01
      vertex   -5.339408e+01 -9.198208e+01 -7.014142e+01
    endloop
  endfacet
  facet normal -1.000000e+00 0.000000e+00 0.000000e+00
    outer loop
      vertex   -5.339408e+01 -9.198208e+01 -7.014142e+01
      vertex   -5.339408e+01 -8.895916e+01 -7.031769e+01
      vertex   -5.339408e+01 -8.890553e+01 -7.035353e+01
    endloop
  endfacet
  facet normal -1.000000e+00 0.000000e+00 0.000000e+00
    outer loop
      vertex   -5.339408e+01 -9.198208e+01 -7.014142e+01
      vertex   -5.339408e+01 -8.890553e+01 -7.035353e+01
      vertex   -5.339408e+01 -8.885399e+01 -7.039232e+01
    endloop
  endfacet
  facet normal -1.000000e+00 -0.000000e+00 -0.000000e+00
    outer loop
      vertex   -5.339408e+01 -8.885399e+01 -7.039232e+01
      vertex   -5.339408e+01 -8.880470e+01 -7.043394e+01
      vertex   -5.339408e+01 -9.198208e+01 -7.014142e+01
    endloop
  endfacet
  facet normal -1.000000e+00 0.000000e+00 0.000000e+00
    outer loop
      vertex   -5.339408e+01 -9.198208e+01 -7.014142e+01
      vertex   -5.339408e+01 -8.880470e+01 -7.043394e+01
      vertex   -5.339408e+01 -8.875783e+01 -7.047825e+01
    endloop
  endfacet
  facet normal -1.000000e+00 0.000000e+00 0.000000e+00
    outer loop
      vertex   -5.339408e+01 -9.198208e+01 -7.014142e+01
      vertex   -5.339408e+01 -8.875783e+01 -7.047825e+01
      vertex   -5.339408e+01 -8.871351e+01 -7.052513e+01
    endloop
  endfacet
  facet normal -1.000000e+00 -0.000000e+00 -0.000000e+00
    outer loop
      vertex   -5.339408e+01 -8.871351e+01 -7.052513e+01
      vertex   -5.339408e+01 -8.867189e+01 -7.057441e+01
      vertex   -5.339408e+01 -9.198208e+01 -7.014142e+01
    endloop
  endfacet
  facet normal -1.000000e+00 0.000000e+00 0.000000e+00
    outer loop
      vertex   -5.339408e+01 -9.198208e+01 -7.014142e+01
      vertex   -5.339408e+01 -8.867189e+01 -7.057441e+01
      vertex   -5.339408e+01 -8.863310e+01 -7.062595e+01
    endloop
  endfacet
  facet normal -1.000000e+00 0.000000e+00 0.000000e+00
    outer loop
      vertex   -5.339408e+01 -9.198208e+01 -7.014142e+01
      vertex   -5.339408e+01 -8.863310e+01 -7.062595e+01
      vertex   -5.339408e+01 -8.859727e+01 -7.067959e+01
    endloop
  endfacet
  facet normal -1.000000e+00 -0.000000e+00 -0.000000e+00
    outer loop
      vertex   -5.339408e+01 -8.859727e+01 -7.067959e+01
      vertex   -5.339408e+01 -8.856449e+01 -7.073515e+01
      vertex   -5.339408e+01 -9.198208e+01 -7.014142e+01
    endloop
  endfacet
  facet normal -1.000000e+00 0.000000e+00 0.000000e+00
    outer loop
      vertex   -5.339408e+01 -9.198208e+01 -7.014142e+01
      vertex   -5.339408e+01 -8.856449e+01 -7.073515e+01
      vertex   -5.339408e+01 -8.853488e+01 -7.079246e+01
    endloop
  endfacet
  facet normal -1.000000e+00 0.000000e+00 0.000000e+00
    outer loop
      vertex   -5.339408e+01 -9.198208e+01 -7.014142e+01
      vertex   -5.339408e+01 -8.853488e+01 -7.079246e+01
      vertex   -5.339408e+01 -8.850854e+01 -7.085134e+01
    endloop
  endfacet
  facet normal -1.000000e+00 -0.000000e+00 -0.000000e+00
    outer loop
      vertex   -5.339408e+01 -8.850854e+01 -7.085134e+01
      vertex   -5.339408e+01 -8.848553e+01 -7.091160e+01
      vertex   -5.339408e+01 -9.198208e+01 -7.014142e+01
    endloop
  endfacet
  facet normal -1.000000e+00 0.000000e+00 0.000000e+00
    outer loop
      vertex   -5.339408e+01 -9.198208e+01 -7.014142e+01
      vertex   -5.339408e+01 -8.848553e+01 -7.091160e+01
      vertex   -5.339408e+01 -8.846594e+01 -7.097306e+01
    endloop
  endfacet
  facet normal -1.000000e+00 0.000000e+00 0.000000e+00
    outer loop
      vertex   -5.339408e+01 -9.198208e+01 -7.014142e+01
      vertex   -5.339408e+01 -8.846594e+01 -7.097306e+01
      vertex   -5.339408e+01 -8.844983e+01 -7.103553e+01
    endloop
  endfacet
  facet normal -1.000000e+00 -0.000000e+00 -0.000000e+00
    outer loop
      vertex   -5.339408e+01 -8.844983e+01 -7.103553e+01
      vertex   -5.339408e+01 -8.843725e+01 -7.109879e+01
      vertex   -5.339408e+01 -9.198208e+01 -7.014142e+01
    endloop
  endfacet
  facet normal -1.000000e+00 0.000000e+00 0.000000e+00
    outer loop
      vertex   -5.339408e+01 -9.198208e+01 -7.014142e+01
      vertex   -5.339408e+01 -8.843725e+01 -7.109879e+01
      vertex   -5.339408e+01 -8.842823e+01 -7.116267e+01
    endloop
  endfacet
  facet normal -1.000000e+00 0.000000e+00 0.000000e+00
    outer loop
      vertex   -5.339408e+01 -9.198208e+01 -7.014142e+01
      vertex   -5.339408e+01 -8.842823e+01 -7.116267e+01
      vertex   -5.339408e+01 -8.842281e+01 -7.122694e+01
    endloop
  endfacet
  facet normal -1.000000e+00 -0.000000e+00 -0.000000e+00
    outer loop
      vertex   -5.339408e+01 -8.842281e+01 -7.122694e+01
      vertex   -5.339408e+01 -8.842100e+01 -7.129142e+01
      vertex   -5.339408e+01 -9.198208e+01 -7.014142e+01
    endloop
  endfacet
  facet normal -1.000000e+00 0.000000e+00 0.000000e+00
    outer loop
      vertex   -5.339408e+01 -9.198208e+01 -7.014142e+01
      vertex   -5.339408e+01 -8.842100e+01 -7.129142e+01
      vertex   -5.339408e+01 -8.842100e+01 -7.339142e+01
    endloop
  endfacet
  facet normal -1.000000e+00 0.000000e+00 0.000000e+00
    outer loop
      vertex   -5.339408e+01 -9.198208e+01 -7.014142e+01
      vertex   -5.339408e+01 -8.842100e+01 -7.339142e+01
      vertex   -5.339408e+01 -8.842281e+01 -7.345591e+01
    endloop
  endfacet
  facet normal -1.000000e+00 -0.000000e+00 0.000000e+00
    outer loop
      vertex   -5.339408e+01 -8.842281e+01 -7.345591e+01
      vertex   -5.339408e+01 -8.842823e+01 -7.352018e+01
      vertex   -5.339408e+01 -9.198208e+01 -7.014142e+01
    endloop
  endfacet
  facet normal -1.000000e+00 0.000000e+00 0.000000e+00
    outer loop
      vertex   -5.339408e+01 -9.198208e+01 -7.014142e+01
      vertex   -5.339408e+01 -8.842823e+01 -7.352018e+01
      vertex   -5.339408e+01 -8.843725e+01 -7.358406e+01
    endloop
  endfacet
  facet normal -1.000000e+00 0.000000e+00 0.000000e+00
    outer loop
      vertex   -5.339408e+01 -9.198208e+01 -7.014142e+01
      vertex   -5.339408e+01 -8.843725e+01 -7.358406e+01
      vertex   -5.339408e+01 -8.844983e+01 -7.364732e+01
    endloop
  endfacet
  facet normal -1.000000e+00 -0.000000e+00 0.000000e+00
    outer loop
      vertex   -5.339408e+01 -8.844983e+01 -7.364732e+01
      vertex   -5.339408e+01 -8.846594e+01 -7.370979e+01
      vertex   -5.339408e+01 -9.198208e+01 -7.014142e+01
    endloop
  endfacet
  facet normal -1.000000e+00 0.000000e+00 0.000000e+00
    outer loop
      vertex   -5.339408e+01 -9.198208e+01 -7.014142e+01
      vertex   -5.339408e+01 -8.846594e+01 -7.370979e+01
      vertex   -5.339408e+01 -8.848553e+01 -7.377125e+01
    endloop
  endfacet
  facet normal -1.000000e+00 0.000000e+00 0.000000e+00
    outer loop
      vertex   -5.339408e+01 -9.198208e+01 -7.014142e+01
      vertex   -5.339408e+01 -8.848553e+01 -7.377125e+01
      vertex   -5.339408e+01 -8.957100e+01 -7.454142e+01
    endloop
  endfacet
  facet normal -1.000000e+00 0.000000e+00 0.000000e+00
    outer loop
      vertex   -5.339408e+01 -8.957100e+01 -7.454142e+01
      vertex   -5.339408e+01 -8.848553e+01 -7.377125e+01
      vertex   -5.339408e+01 -8.950652e+01 -7.453962e+01
    endloop
  endfacet
  facet normal -1.000000e+00 0.000000e+00 0.000000e+00
    outer loop
      vertex   -5.339408e+01 -8.950652e+01 -7.453962e+01
      vertex   -5.339408e+01 -8.848553e+01 -7.377125e+01
      vertex   -5.339408e+01 -8.944224e+01 -7.453419e+01
    endloop
  endfacet
  facet normal -1.000000e+00 0.000000e+00 0.000000e+00
    outer loop
      vertex   -5.339408e+01 -8.944224e+01 -7.453419e+01
      vertex   -5.339408e+01 -8.848553e+01 -7.377125e+01
      vertex   -5.339408e+01 -8.937837e+01 -7.452518e+01
    endloop
  endfacet
  facet normal -1.000000e+00 0.000000e+00 0.000000e+00
    outer loop
      vertex   -5.339408e+01 -8.937837e+01 -7.452518e+01
      vertex   -5.339408e+01 -8.848553e+01 -7.377125e+01
      vertex   -5.339408e+01 -8.931510e+01 -7.451259e+01
    endloop
  endfacet
  facet normal -1.000000e+00 0.000000e+00 0.000000e+00
    outer loop
      vertex   -5.339408e+01 -8.931510e+01 -7.451259e+01
      vertex   -5.339408e+01 -8.848553e+01 -7.377125e+01
      vertex   -5.339408e+01 -8.925264e+01 -7.449648e+01
    endloop
  endfacet
  facet normal -1.000000e+00 0.000000e+00 0.000000e+00
    outer loop
      vertex   -5.339408e+01 -8.925264e+01 -7.449648e+01
      vertex   -5.339408e+01 -8.848553e+01 -7.377125e+01
      vertex   -5.339408e+01 -8.919118e+01 -7.447689e+01
    endloop
  endfacet
  facet normal -1.000000e+00 0.000000e+00 0.000000e+00
    outer loop
      vertex   -5.339408e+01 -8.919118e+01 -7.447689e+01
      vertex   -5.339408e+01 -8.848553e+01 -7.377125e+01
      vertex   -5.339408e+01 -8.913091e+01 -7.445389e+01
    endloop
  endfacet
  facet normal -1.000000e+00 0.000000e+00 0.000000e+00
    outer loop
      vertex   -5.339408e+01 -8.913091e+01 -7.445389e+01
      vertex   -5.339408e+01 -8.848553e+01 -7.377125e+01
      vertex   -5.339408e+01 -8.907203e+01 -7.442754e+01
    endloop
  endfacet
  facet normal -1.000000e+00 0.000000e+00 0.000000e+00
    outer loop
      vertex   -5.339408e+01 -8.907203e+01 -7.442754e+01
      vertex   -5.339408e+01 -8.848553e+01 -7.377125e+01
      vertex   -5.339408e+01 -8.901472e+01 -7.439793e+01
    endloop
  endfacet
  facet normal -1.000000e+00 0.000000e+00 0.000000e+00
    outer loop
      vertex   -5.339408e+01 -8.901472e+01 -7.439793e+01
      vertex   -5.339408e+01 -8.848553e+01 -7.377125e+01
      vertex   -5.339408e+01 -8.895916e+01 -7.436516e+01
    endloop
  endfacet
  facet normal -1.000000e+00 0.000000e+00 0.000000e+00
    outer loop
      vertex   -5.339408e+01 -8.895916e+01 -7.436516e+01
      vertex   -5.339408e+01 -8.848553e+01 -7.377125e+01
      vertex   -5.339408e+01 -8.890553e+01 -7.432932e+01
    endloop
  endfacet
  facet normal -1.000000e+00 0.000000e+00 0.000000e+00
    outer loop
      vertex   -5.339408e+01 -8.890553e+01 -7.432932e+01
      vertex   -5.339408e+01 -8.848553e+01 -7.377125e+01
      vertex   -5.339408e+01 -8.885399e+01 -7.429053e+01
    endloop
  endfacet
  facet normal -1.000000e+00 0.000000e+00 0.000000e+00
    outer loop
      vertex   -5.339408e+01 -8.885399e+01 -7.429053e+01
      vertex   -5.339408e+01 -8.848553e+01 -7.377125e+01
      vertex   -5.339408e+01 -8.880470e+01 -7.424891e+01
    endloop
  endfacet
  facet normal -1.000000e+00 0.000000e+00 0.000000e+00
    outer loop
      vertex   -5.339408e+01 -8.880470e+01 -7.424891e+01
      vertex   -5.339408e+01 -8.848553e+01 -7.377125e+01
      vertex   -5.339408e+01 -8.875783e+01 -7.420460e+01
    endloop
  endfacet
  facet normal -1.000000e+00 0.000000e+00 0.000000e+00
    outer loop
      vertex   -5.339408e+01 -8.875783e+01 -7.420460e+01
      vertex   -5.339408e+01 -8.848553e+01 -7.377125e+01
      vertex   -5.339408e+01 -8.871351e+01 -7.415772e+01
    endloop
  endfacet
  facet normal -1.000000e+00 0.000000e+00 0.000000e+00
    outer loop
      vertex   -5.339408e+01 -8.871351e+01 -7.415772e+01
      vertex   -5.339408e+01 -8.848553e+01 -7.377125e+01
      vertex   -5.339408e+01 -8.867189e+01 -7.410844e+01
    endloop
  endfacet
  facet normal -1.000000e+00 0.000000e+00 0.000000e+00
    outer loop
      vertex   -5.339408e+01 -8.867189e+01 -7.410844e+01
      vertex   -5.339408e+01 -8.848553e+01 -7.377125e+01
      vertex   -5.339408e+01 -8.863310e+01 -7.405690e+01
    endloop
  endfacet
  facet normal -1.000000e+00 0.000000e+00 0.000000e+00
    outer loop
      vertex   -5.339408e+01 -8.863310e+01 -7.405690e+01
      vertex   -5.339408e+01 -8.848553e+01 -7.377125e+01
      vertex   -5.339408e+01 -8.859727e+01 -7.400326e+01
    endloop
  endfacet
  facet normal -1.000000e+00 0.000000e+00 0.000000e+00
    outer loop
      vertex   -5.339408e+01 -8.859727e+01 -7.400326e+01
      vertex   -5.339408e+01 -8.848553e+01 -7.377125e+01
      vertex   -5.339408e+01 -8.856449e+01 -7.394770e+01
    endloop
  endfacet
  facet normal -1.000000e+00 0.000000e+00 0.000000e+00
    outer loop
      vertex   -5.339408e+01 -8.856449e+01 -7.394770e+01
      vertex   -5.339408e+01 -8.848553e+01 -7.377125e+01
      vertex   -5.339408e+01 -8.853488e+01 -7.389039e+01
    endloop
  endfacet
  facet normal -1.000000e+00 0.000000e+00 0.000000e+00
    outer loop
      vertex   -5.339408e+01 -8.853488e+01 -7.389039e+01
      vertex   -5.339408e+01 -8.848553e+01 -7.377125e+01
      vertex   -5.339408e+01 -8.850854e+01 -7.383151e+01
    endloop
  endfacet
  facet normal -1.000000e+00 0.000000e+00 0.000000e+00
    outer loop
      vertex   -5.339408e+01 -8.957100e+01 -7.454142e+01
      vertex   -5.339408e+01 -9.198208e+01 -7.454142e+01
      vertex   -5.339408e+01 -9.198208e+01 -7.014142e+01
    endloop
  endfacet
  facet normal -0.000000e+00 1.000000e+00 0.000000e+00
    outer loop
      vertex   -5.339408e+01 -8.842100e+01 -7.129142e+01
      vertex   -5.099420e+01 -8.842100e+01 -7.129142e+01
      vertex   -5.339408e+01 -8.842100e+01 -7.339142e+01
    endloop
  endfacet
  facet normal 0.000000e+00 1.000000e+00 0.000000e+00
    outer loop
      vertex   -5.339408e+01 -8.842100e+01 -7.339142e+01
      vertex   -5.099420e+01 -8.842100e+01 -7.129142e+01
      vertex   -5.099420e+01 -8.842100e+01 -7.339142e+01
    endloop
  endfacet
  facet normal 1.000000e+00 5.380301e-05 -0.000000e+00
    outer loop
      vertex   -5.099420e+01 -8.952100e+01 -7.454034e+01
      vertex   -5.099420e+01 -8.952100e+01 -7.014251e+01
      vertex   -5.099420e+01 -8.953766e+01 -7.454094e+01
    endloop
  endfacet
  facet normal 1.000000e+00 5.380301e-05 -0.000000e+00
    outer loop
      vertex   -5.099420e+01 -8.953766e+01 -7.454094e+01
      vertex   -5.099420e+01 -8.952100e+01 -7.014251e+01
      vertex   -5.099420e+01 -8.953766e+01 -7.014191e+01
    endloop
  endfacet
  facet normal 1.000000e+00 5.380301e-05 -0.000000e+00
    outer loop
      vertex   -5.099420e+01 -8.953766e+01 -7.454094e+01
      vertex   -5.099420e+01 -8.953766e+01 -7.014191e+01
      vertex   -5.099420e+01 -8.955433e+01 -7.454130e+01
    endloop
  endfacet
  facet normal 1.000000e+00 5.380301e-05 1.737793e-19
    outer loop
      vertex   -5.099420e+01 -8.955433e+01 -7.454130e+01
      vertex   -5.099420e+01 -8.953766e+01 -7.014191e+01
      vertex   -5.099420e+01 -8.955433e+01 -7.014155e+01
    endloop
  endfacet
  facet normal 1.000000e+00 5.380301e-05 1.737793e-19
    outer loop
      vertex   -5.099420e+01 -8.955433e+01 -7.454130e+01
      vertex   -5.099420e+01 -8.955433e+01 -7.014155e+01
      vertex   -5.099420e+01 -8.957100e+01 -7.454142e+01
    endloop
  endfacet
  facet normal 1.000000e+00 5.380301e-05 -1.614870e-15
    outer loop
      vertex   -5.099420e+01 -8.957100e+01 -7.454142e+01
      vertex   -5.099420e+01 -8.955433e+01 -7.014155e+01
      vertex   -5.099420e+01 -8.957100e+01 -7.014142e+01
    endloop
  endfacet
  facet normal 1.000000e+00 5.380301e-05 -1.614870e-15
    outer loop
      vertex   -5.099420e+01 -8.957100e+01 -7.454142e+01
      vertex   -5.099420e+01 -8.957100e+01 -7.014142e+01
      vertex   -5.099408e+01 -9.175154e+01 -7.014142e+01
    endloop
  endfacet
  facet normal 1.000000e+00 5.380301e-05 0.000000e+00
    outer loop
      vertex   -5.099408e+01 -9.175154e+01 -7.014142e+01
      vertex   -5.099408e+01 -9.175154e+01 -7.454142e+01
      vertex   -5.099420e+01 -8.957100e+01 -7.454142e+01
    endloop
  endfacet
  facet normal 2.947033e-04 7.171378e-02 -9.974252e-01
    outer loop
      vertex   -5.099420e+01 -8.945612e+01 -7.453567e+01
      vertex   -5.099420e+01 -8.952100e+01 -7.454034e+01
      vertex   -5.219414e+01 -8.950413e+01 -7.453948e+01
    endloop
  endfacet
  facet normal -2.053587e-04 3.623542e-02 -9.993433e-01
    outer loop
      vertex   -5.219414e+01 -8.950413e+01 -7.453948e+01
      vertex   -5.099420e+01 -8.952100e+01 -7.454034e+01
      vertex   -5.099420e+01 -8.953766e+01 -7.454094e+01
    endloop
  endfacet
  facet normal -2.699989e-04 3.392549e-02 -9.994243e-01
    outer loop
      vertex   -5.219414e+01 -8.950413e+01 -7.453948e+01
      vertex   -5.099420e+01 -8.953766e+01 -7.454094e+01
      vertex   -5.339408e+01 -8.957100e+01 -7.454142e+01
    endloop
  endfacet
  facet normal -1.007088e-04 2.174427e-02 -9.997636e-01
    outer loop
      vertex   -5.339408e+01 -8.957100e+01 -7.454142e+01
      vertex   -5.099420e+01 -8.953766e+01 -7.454094e+01
      vertex   -5.099420e+01 -8.955433e+01 -7.454130e+01
    endloop
  endfacet
  facet normal -2.312099e-10 7.248532e-03 -9.999737e-01
    outer loop
      vertex   -5.339408e+01 -8.957100e+01 -7.454142e+01
      vertex   -5.099420e+01 -8.955433e+01 -7.454130e+01
      vertex   -5.099420e+01 -8.957100e+01 -7.454142e+01
    endloop
  endfacet
  facet normal 5.791628e-05 2.804626e-02 -9.996066e-01
    outer loop
      vertex   -5.339408e+01 -8.957100e+01 -7.454142e+01
      vertex   -5.339408e+01 -8.950652e+01 -7.453962e+01
      vertex   -5.219414e+01 -8.950413e+01 -7.453948e+01
    endloop
  endfacet
  facet normal -5.378045e-05 8.405052e-02 -9.964615e-01
    outer loop
      vertex   -5.219414e+01 -8.950413e+01 -7.453948e+01
      vertex   -5.339408e+01 -8.950652e+01 -7.453962e+01
      vertex   -5.339408e+01 -8.944224e+01 -7.453419e+01
    endloop
  endfacet
  facet normal 1.075608e-04 8.715574e-02 -9.961947e-01
    outer loop
      vertex   -5.219414e+01 -8.950413e+01 -7.453948e+01
      vertex   -5.339408e+01 -8.944224e+01 -7.453419e+01
      vertex   -5.219414e+01 -8.943749e+01 -7.453365e+01
    endloop
  endfacet
  facet normal -1.034248e-04 1.397903e-01 -9.901811e-01
    outer loop
      vertex   -5.219414e+01 -8.943749e+01 -7.453365e+01
      vertex   -5.339408e+01 -8.944224e+01 -7.453419e+01
      vertex   -5.339408e+01 -8.937837e+01 -7.452518e+01
    endloop
  endfacet
  facet normal 1.551371e-04 1.449319e-01 -9.894416e-01
    outer loop
      vertex   -5.219414e+01 -8.943749e+01 -7.453365e+01
      vertex   -5.339408e+01 -8.937837e+01 -7.452518e+01
      vertex   -5.219414e+01 -8.937130e+01 -7.452395e+01
    endloop
  endfacet
  facet normal -1.489329e-04 1.950903e-01 -9.807853e-01
    outer loop
      vertex   -5.219414e+01 -8.937130e+01 -7.452395e+01
      vertex   -5.339408e+01 -8.937837e+01 -7.452518e+01
      vertex   -5.339408e+01 -8.931510e+01 -7.451259e+01
    endloop
  endfacet
  facet normal 1.985770e-04 2.022176e-01 -9.793406e-01
    outer loop
      vertex   -5.219414e+01 -8.937130e+01 -7.452395e+01
      vertex   -5.339408e+01 -8.931510e+01 -7.451259e+01
      vertex   -5.219414e+01 -8.930579e+01 -7.451043e+01
    endloop
  endfacet
  facet normal -1.903046e-04 2.497765e-01 -9.683035e-01
    outer loop
      vertex   -5.219414e+01 -8.930579e+01 -7.451043e+01
      vertex   -5.339408e+01 -8.931510e+01 -7.451259e+01
      vertex   -5.339408e+01 -8.925264e+01 -7.449648e+01
    endloop
  endfacet
  facet normal 2.378803e-04 2.588190e-01 -9.659258e-01
    outer loop
      vertex   -5.219414e+01 -8.930579e+01 -7.451043e+01
      vertex   -5.339408e+01 -8.925264e+01 -7.449648e+01
      vertex   -5.219414e+01 -8.924118e+01 -7.449311e+01
    endloop
  endfacet
  facet normal -2.275396e-04 3.036767e-01 -9.527751e-01
    outer loop
      vertex   -5.219414e+01 -8.924118e+01 -7.449311e+01
      vertex   -5.339408e+01 -8.925264e+01 -7.449648e+01
      vertex   -5.339408e+01 -8.919118e+01 -7.447689e+01
    endloop
  endfacet
  facet normal 2.730469e-04 3.145447e-01 -9.492426e-01
    outer loop
      vertex   -5.219414e+01 -8.924118e+01 -7.449311e+01
      vertex   -5.339408e+01 -8.919118e+01 -7.447689e+01
      vertex   -5.219414e+01 -8.917768e+01 -7.447207e+01
    endloop
  endfacet
  facet normal -2.606377e-04 3.566215e-01 -9.342489e-01
    outer loop
      vertex   -5.219414e+01 -8.917768e+01 -7.447207e+01
      vertex   -5.339408e+01 -8.919118e+01 -7.447689e+01
      vertex   -5.339408e+01 -8.913091e+01 -7.445389e+01
    endloop
  endfacet
  facet normal 3.040766e-04 3.692061e-01 -9.293475e-01
    outer loop
      vertex   -5.219414e+01 -8.917768e+01 -7.447207e+01
      vertex   -5.339408e+01 -8.913091e+01 -7.445389e+01
      vertex   -5.219414e+01 -8.911551e+01 -7.444737e+01
    endloop
  endfacet
  facet normal -2.895989e-04 4.084442e-01 -9.127832e-01
    outer loop
      vertex   -5.219414e+01 -8.911551e+01 -7.444737e+01
      vertex   -5.339408e+01 -8.913091e+01 -7.445389e+01
      vertex   -5.339408e+01 -8.907203e+01 -7.442754e+01
    endloop
  endfacet
  facet normal 3.309693e-04 4.226182e-01 -9.063077e-01
    outer loop
      vertex   -5.219414e+01 -8.911551e+01 -7.444737e+01
      vertex   -5.339408e+01 -8.907203e+01 -7.442754e+01
      vertex   -5.219414e+01 -8.905488e+01 -7.441910e+01
    endloop
  endfacet
  facet normal -3.144230e-04 4.589818e-01 -8.884456e-01
    outer loop
      vertex   -5.219414e+01 -8.905488e+01 -7.441910e+01
      vertex   -5.339408e+01 -8.907203e+01 -7.442754e+01
      vertex   -5.339408e+01 -8.901472e+01 -7.439793e+01
    endloop
  endfacet
  facet normal 3.537248e-04 4.746003e-01 -8.802013e-01
    outer loop
      vertex   -5.219414e+01 -8.905488e+01 -7.441910e+01
      vertex   -5.339408e+01 -8.901472e+01 -7.439793e+01
      vertex   -5.219414e+01 -8.899600e+01 -7.438735e+01
    endloop
  endfacet
  facet normal -3.351100e-04 5.080753e-01 -8.613126e-01
    outer loop
      vertex   -5.219414e+01 -8.899600e+01 -7.438735e+01
      vertex   -5.339408e+01 -8.901472e+01 -7.439793e+01
      vertex   -5.339408e+01 -8.895916e+01 -7.436516e+01
    endloop
  endfacet
  facet normal 3.723431e-04 5.249765e-01 -8.511166e-01
    outer loop
      vertex   -5.219414e+01 -8.899600e+01 -7.438735e+01
      vertex   -5.339408e+01 -8.895916e+01 -7.436516e+01
      vertex   -5.219414e+01 -8.893906e+01 -7.435224e+01
    endloop
  endfacet
  facet normal -3.516596e-04 5.555702e-01 -8.314696e-01
    outer loop
      vertex   -5.219414e+01 -8.893906e+01 -7.435224e+01
      vertex   -5.339408e+01 -8.895916e+01 -7.436516e+01
      vertex   -5.339408e+01 -8.890553e+01 -7.432932e+01
    endloop
  endfacet
  facet normal 3.868241e-04 5.735764e-01 -8.191520e-01
    outer loop
      vertex   -5.219414e+01 -8.893906e+01 -7.435224e+01
      vertex   -5.339408e+01 -8.890553e+01 -7.432932e+01
      vertex   -5.219414e+01 -8.888427e+01 -7.431387e+01
    endloop
  endfacet
  facet normal -3.640719e-04 6.013171e-01 -7.990104e-01
    outer loop
      vertex   -5.219414e+01 -8.888427e+01 -7.431387e+01
      vertex   -5.339408e+01 -8.890553e+01 -7.432932e+01
      vertex   -5.339408e+01 -8.885399e+01 -7.429053e+01
    endloop
  endfacet
  facet normal 3.971677e-04 6.202354e-01 -7.844156e-01
    outer loop
      vertex   -5.219414e+01 -8.888427e+01 -7.431387e+01
      vertex   -5.339408e+01 -8.885399e+01 -7.429053e+01
      vertex   -5.219414e+01 -8.883179e+01 -7.427238e+01
    endloop
  endfacet
  facet normal -3.723468e-04 6.451719e-01 -7.640373e-01
    outer loop
      vertex   -5.219414e+01 -8.883179e+01 -7.427238e+01
      vertex   -5.339408e+01 -8.885399e+01 -7.429053e+01
      vertex   -5.339408e+01 -8.880470e+01 -7.424891e+01
    endloop
  endfacet
  facet normal 4.033739e-04 6.647958e-01 -7.470250e-01
    outer loop
      vertex   -5.219414e+01 -8.883179e+01 -7.427238e+01
      vertex   -5.339408e+01 -8.880470e+01 -7.424891e+01
      vertex   -5.219414e+01 -8.878182e+01 -7.422790e+01
    endloop
  endfacet
  facet normal -3.764843e-04 6.869969e-01 -7.266603e-01
    outer loop
      vertex   -5.219414e+01 -8.878182e+01 -7.422790e+01
      vertex   -5.339408e+01 -8.880470e+01 -7.424891e+01
      vertex   -5.339408e+01 -8.875783e+01 -7.420460e+01
    endloop
  endfacet
  facet normal 4.054426e-04 7.071067e-01 -7.071067e-01
    outer loop
      vertex   -5.219414e+01 -8.878182e+01 -7.422790e+01
      vertex   -5.339408e+01 -8.875783e+01 -7.420460e+01
      vertex   -5.219414e+01 -8.873452e+01 -7.418060e+01
    endloop
  endfacet
  facet normal -3.764843e-04 7.266603e-01 -6.869969e-01
    outer loop
      vertex   -5.219414e+01 -8.873452e+01 -7.418060e+01
      vertex   -5.339408e+01 -8.875783e+01 -7.420460e+01
      vertex   -5.339408e+01 -8.871351e+01 -7.415772e+01
    endloop
  endfacet
  facet normal 4.033739e-04 7.470250e-01 -6.647958e-01
    outer loop
      vertex   -5.219414e+01 -8.873452e+01 -7.418060e+01
      vertex   -5.339408e+01 -8.871351e+01 -7.415772e+01
      vertex   -5.219414e+01 -8.869005e+01 -7.413063e+01
    endloop
  endfacet
  facet normal -3.723468e-04 7.640373e-01 -6.451719e-01
    outer loop
      vertex   -5.219414e+01 -8.869005e+01 -7.413063e+01
      vertex   -5.339408e+01 -8.871351e+01 -7.415772e+01
      vertex   -5.339408e+01 -8.867189e+01 -7.410844e+01
    endloop
  endfacet
  facet normal 3.971677e-04 7.844156e-01 -6.202354e-01
    outer loop
      vertex   -5.219414e+01 -8.869005e+01 -7.413063e+01
      vertex   -5.339408e+01 -8.867189e+01 -7.410844e+01
      vertex   -5.219414e+01 -8.864856e+01 -7.407816e+01
    endloop
  endfacet
  facet normal -3.640719e-04 7.990104e-01 -6.013171e-01
    outer loop
      vertex   -5.219414e+01 -8.864856e+01 -7.407816e+01
      vertex   -5.339408e+01 -8.867189e+01 -7.410844e+01
      vertex   -5.339408e+01 -8.863310e+01 -7.405690e+01
    endloop
  endfacet
  facet normal 3.868241e-04 8.191520e-01 -5.735764e-01
    outer loop
      vertex   -5.219414e+01 -8.864856e+01 -7.407816e+01
      vertex   -5.339408e+01 -8.863310e+01 -7.405690e+01
      vertex   -5.219414e+01 -8.861019e+01 -7.402336e+01
    endloop
  endfacet
  facet normal -3.516596e-04 8.314696e-01 -5.555702e-01
    outer loop
      vertex   -5.219414e+01 -8.861019e+01 -7.402336e+01
      vertex   -5.339408e+01 -8.863310e+01 -7.405690e+01
      vertex   -5.339408e+01 -8.859727e+01 -7.400326e+01
    endloop
  endfacet
  facet normal 3.723431e-04 8.511166e-01 -5.249765e-01
    outer loop
      vertex   -5.219414e+01 -8.861019e+01 -7.402336e+01
      vertex   -5.339408e+01 -8.859727e+01 -7.400326e+01
      vertex   -5.219414e+01 -8.857507e+01 -7.396642e+01
    endloop
  endfacet
  facet normal -3.351100e-04 8.613126e-01 -5.080753e-01
    outer loop
      vertex   -5.219414e+01 -8.857507e+01 -7.396642e+01
      vertex   -5.339408e+01 -8.859727e+01 -7.400326e+01
      vertex   -5.339408e+01 -8.856449e+01 -7.394770e+01
    endloop
  endfacet
  facet normal 3.537248e-04 8.802013e-01 -4.746003e-01
    outer loop
      vertex   -5.219414e+01 -8.857507e+01 -7.396642e+01
      vertex   -5.339408e+01 -8.856449e+01 -7.394770e+01
      vertex   -5.219414e+01 -8.854332e+01 -7.390754e+01
    endloop
  endfacet
  facet normal -3.144230e-04 8.884456e-01 -4.589818e-01
    outer loop
      vertex   -5.219414e+01 -8.854332e+01 -7.390754e+01
      vertex   -5.339408e+01 -8.856449e+01 -7.394770e+01
      vertex   -5.339408e+01 -8.853488e+01 -7.389039e+01
    endloop
  endfacet
  facet normal 3.309693e-04 9.063077e-01 -4.226182e-01
    outer loop
      vertex   -5.219414e+01 -8.854332e+01 -7.390754e+01
      vertex   -5.339408e+01 -8.853488e+01 -7.389039e+01
      vertex   -5.219414e+01 -8.851505e+01 -7.384692e+01
    endloop
  endfacet
  facet normal -2.895989e-04 9.127832e-01 -4.084442e-01
    outer loop
      vertex   -5.219414e+01 -8.851505e+01 -7.384692e+01
      vertex   -5.339408e+01 -8.853488e+01 -7.389039e+01
      vertex   -5.339408e+01 -8.850854e+01 -7.383151e+01
    endloop
  endfacet
  facet normal 3.040766e-04 9.293475e-01 -3.692061e-01
    outer loop
      vertex   -5.219414e+01 -8.851505e+01 -7.384692e+01
      vertex   -5.339408e+01 -8.850854e+01 -7.383151e+01
      vertex   -5.219414e+01 -8.849035e+01 -7.378475e+01
    endloop
  endfacet
  facet normal -2.606377e-04 9.342489e-01 -3.566215e-01
    outer loop
      vertex   -5.219414e+01 -8.849035e+01 -7.378475e+01
      vertex   -5.339408e+01 -8.850854e+01 -7.383151e+01
      vertex   -5.339408e+01 -8.848553e+01 -7.377125e+01
    endloop
  endfacet
  facet normal 2.730469e-04 9.492426e-01 -3.145447e-01
    outer loop
      vertex   -5.219414e+01 -8.849035e+01 -7.378475e+01
      vertex   -5.339408e+01 -8.848553e+01 -7.377125e+01
      vertex   -5.219414e+01 -8.846931e+01 -7.372125e+01
    endloop
  endfacet
  facet normal -2.275396e-04 9.527751e-01 -3.036767e-01
    outer loop
      vertex   -5.219414e+01 -8.846931e+01 -7.372125e+01
      vertex   -5.339408e+01 -8.848553e+01 -7.377125e+01
      vertex   -5.339408e+01 -8.846594e+01 -7.370979e+01
    endloop
  endfacet
  facet normal 2.378803e-04 9.659258e-01 -2.588190e-01
    outer loop
      vertex   -5.219414e+01 -8.846931e+01 -7.372125e+01
      vertex   -5.339408e+01 -8.846594e+01 -7.370979e+01
      vertex   -5.219414e+01 -8.845200e+01 -7.365663e+01
    endloop
  endfacet
  facet normal -1.903046e-04 9.683035e-01 -2.497765e-01
    outer loop
      vertex   -5.219414e+01 -8.845200e+01 -7.365663e+01
      vertex   -5.339408e+01 -8.846594e+01 -7.370979e+01
      vertex   -5.339408e+01 -8.844983e+01 -7.364732e+01
    endloop
  endfacet
  facet normal 1.985770e-04 9.793406e-01 -2.022176e-01
    outer loop
      vertex   -5.219414e+01 -8.845200e+01 -7.365663e+01
      vertex   -5.339408e+01 -8.844983e+01 -7.364732e+01
      vertex   -5.219414e+01 -8.843847e+01 -7.359112e+01
    endloop
  endfacet
  facet normal -1.489329e-04 9.807853e-01 -1.950903e-01
    outer loop
      vertex   -5.219414e+01 -8.843847e+01 -7.359112e+01
      vertex   -5.339408e+01 -8.844983e+01 -7.364732e+01
      vertex   -5.339408e+01 -8.843725e+01 -7.358406e+01
    endloop
  endfacet
  facet normal 1.551371e-04 9.894416e-01 -1.449319e-01
    outer loop
      vertex   -5.219414e+01 -8.843847e+01 -7.359112e+01
      vertex   -5.339408e+01 -8.843725e+01 -7.358406e+01
      vertex   -5.219414e+01 -8.842877e+01 -7.352493e+01
    endloop
  endfacet
  facet normal -1.034248e-04 9.901811e-01 -1.397903e-01
    outer loop
      vertex   -5.219414e+01 -8.842877e+01 -7.352493e+01
      vertex   -5.339408e+01 -8.843725e+01 -7.358406e+01
      vertex   -5.339408e+01 -8.842823e+01 -7.352018e+01
    endloop
  endfacet
  facet normal 1.075608e-04 9.961947e-01 -8.715574e-02
    outer loop
      vertex   -5.219414e+01 -8.842877e+01 -7.352493e+01
      vertex   -5.339408e+01 -8.842823e+01 -7.352018e+01
      vertex   -5.219414e+01 -8.842294e+01 -7.345829e+01
    endloop
  endfacet
  facet normal -5.378045e-05 9.964615e-01 -8.405052e-02
    outer loop
      vertex   -5.219414e+01 -8.842294e+01 -7.345829e+01
      vertex   -5.339408e+01 -8.842823e+01 -7.352018e+01
      vertex   -5.339408e+01 -8.842281e+01 -7.345591e+01
    endloop
  endfacet
  facet normal 5.392304e-05 9.995483e-01 -3.005155e-02
    outer loop
      vertex   -5.219414e+01 -8.842294e+01 -7.345829e+01
      vertex   -5.339408e+01 -8.842281e+01 -7.345591e+01
      vertex   -5.099420e+01 -8.842100e+01 -7.339142e+01
    endloop
  endfacet
  facet normal 0.000000e+00 9.996066e-01 -2.804626e-02
    outer loop
      vertex   -5.099420e+01 -8.842100e+01 -7.339142e+01
      vertex   -5.339408e+01 -8.842281e+01 -7.345591e+01
      vertex   -5.339408e+01 -8.842100e+01 -7.339142e+01
    endloop
  endfacet
  facet normal -4.490027e-05 9.996000e-01 -2.827964e-02
    outer loop
      vertex   -5.099420e+01 -8.842100e+01 -7.339142e+01
      vertex   -5.099420e+01 -8.842284e+01 -7.345644e+01
      vertex   -5.219414e+01 -8.842294e+01 -7.345829e+01
    endloop
  endfacet
  facet normal 4.241453e-05 9.964024e-01 -8.474846e-02
    outer loop
      vertex   -5.219414e+01 -8.842294e+01 -7.345829e+01
      vertex   -5.099420e+01 -8.842284e+01 -7.345644e+01
      vertex   -5.099420e+01 -8.842835e+01 -7.352125e+01
    endloop
  endfacet
  facet normal -8.482903e-05 9.961947e-01 -8.715574e-02
    outer loop
      vertex   -5.219414e+01 -8.842294e+01 -7.345829e+01
      vertex   -5.099420e+01 -8.842835e+01 -7.352125e+01
      vertex   -5.219414e+01 -8.842877e+01 -7.352493e+01
    endloop
  endfacet
  facet normal 8.234321e-05 9.900173e-01 -1.409462e-01
    outer loop
      vertex   -5.219414e+01 -8.842877e+01 -7.352493e+01
      vertex   -5.099420e+01 -8.842835e+01 -7.352125e+01
      vertex   -5.099420e+01 -8.843752e+01 -7.358564e+01
    endloop
  endfacet
  facet normal -1.235147e-04 9.894416e-01 -1.449319e-01
    outer loop
      vertex   -5.219414e+01 -8.842877e+01 -7.352493e+01
      vertex   -5.099420e+01 -8.843752e+01 -7.358564e+01
      vertex   -5.219414e+01 -8.843847e+01 -7.359112e+01
    endloop
  endfacet
  facet normal 1.197859e-04 9.804651e-01 -1.966930e-01
    outer loop
      vertex   -5.219414e+01 -8.843847e+01 -7.359112e+01
      vertex   -5.099420e+01 -8.843752e+01 -7.358564e+01
      vertex   -5.099420e+01 -8.845031e+01 -7.364942e+01
    endloop
  endfacet
  facet normal -1.597145e-04 9.793406e-01 -2.022176e-01
    outer loop
      vertex   -5.219414e+01 -8.843847e+01 -7.359112e+01
      vertex   -5.099420e+01 -8.845031e+01 -7.364942e+01
      vertex   -5.219414e+01 -8.845200e+01 -7.365663e+01
    endloop
  endfacet
  facet normal 1.547426e-04 9.677765e-01 -2.518106e-01
    outer loop
      vertex   -5.219414e+01 -8.845200e+01 -7.365663e+01
      vertex   -5.099420e+01 -8.845031e+01 -7.364942e+01
      vertex   -5.099420e+01 -8.846669e+01 -7.371236e+01
    endloop
  endfacet
  facet normal -1.934281e-04 9.659258e-01 -2.588190e-01
    outer loop
      vertex   -5.219414e+01 -8.845200e+01 -7.365663e+01
      vertex   -5.099420e+01 -8.846669e+01 -7.371236e+01
      vertex   -5.219414e+01 -8.846931e+01 -7.372125e+01
    endloop
  endfacet
  facet normal 1.872131e-04 9.519920e-01 -3.061227e-01
    outer loop
      vertex   -5.219414e+01 -8.846931e+01 -7.372125e+01
      vertex   -5.099420e+01 -8.846669e+01 -7.371236e+01
      vertex   -5.099420e+01 -8.848660e+01 -7.377429e+01
    endloop
  endfacet
  facet normal -2.246555e-04 9.492426e-01 -3.145447e-01
    outer loop
      vertex   -5.219414e+01 -8.846931e+01 -7.372125e+01
      vertex   -5.099420e+01 -8.848660e+01 -7.377429e+01
      vertex   -5.219414e+01 -8.849035e+01 -7.378475e+01
    endloop
  endfacet
  facet normal 2.171975e-04 9.331622e-01 -3.594555e-01
    outer loop
      vertex   -5.219414e+01 -8.849035e+01 -7.378475e+01
      vertex   -5.099420e+01 -8.848660e+01 -7.377429e+01
      vertex   -5.099420e+01 -8.850998e+01 -7.383498e+01
    endloop
  endfacet
  facet normal -2.533967e-04 9.293475e-01 -3.692061e-01
    outer loop
      vertex   -5.219414e+01 -8.849035e+01 -7.378475e+01
      vertex   -5.099420e+01 -8.850998e+01 -7.383498e+01
      vertex   -5.219414e+01 -8.851505e+01 -7.384692e+01
    endloop
  endfacet
  facet normal 2.446955e-04 9.113472e-01 -4.116385e-01
    outer loop
      vertex   -5.219414e+01 -8.851505e+01 -7.384692e+01
      vertex   -5.099420e+01 -8.850998e+01 -7.383498e+01
      vertex   -5.099420e+01 -8.853676e+01 -7.389426e+01
    endloop
  endfacet
  facet normal -2.796515e-04 9.063078e-01 -4.226182e-01
    outer loop
      vertex   -5.219414e+01 -8.851505e+01 -7.384692e+01
      vertex   -5.099420e+01 -8.853676e+01 -7.389426e+01
      vertex   -5.219414e+01 -8.854332e+01 -7.390754e+01
    endloop
  endfacet
  facet normal 2.697071e-04 8.866168e-01 -4.625046e-01
    outer loop
      vertex   -5.219414e+01 -8.854332e+01 -7.390754e+01
      vertex   -5.099420e+01 -8.853676e+01 -7.389426e+01
      vertex   -5.099420e+01 -8.856684e+01 -7.395193e+01
    endloop
  endfacet
  facet normal -3.034199e-04 8.802014e-01 -4.746003e-01
    outer loop
      vertex   -5.219414e+01 -8.854332e+01 -7.390754e+01
      vertex   -5.099420e+01 -8.856684e+01 -7.395193e+01
      vertex   -5.219414e+01 -8.857507e+01 -7.396642e+01
    endloop
  endfacet
  facet normal 2.922323e-04 8.590502e-01 -5.118912e-01
    outer loop
      vertex   -5.219414e+01 -8.857507e+01 -7.396642e+01
      vertex   -5.099420e+01 -8.856684e+01 -7.395193e+01
      vertex   -5.099420e+01 -8.860013e+01 -7.400780e+01
    endloop
  endfacet
  facet normal -3.247019e-04 8.511166e-01 -5.249766e-01
    outer loop
      vertex   -5.219414e+01 -8.857507e+01 -7.396642e+01
      vertex   -5.099420e+01 -8.860013e+01 -7.400780e+01
      vertex   -5.219414e+01 -8.861019e+01 -7.402336e+01
    endloop
  endfacet
  facet normal 3.122710e-04 8.287356e-01 -5.596403e-01
    outer loop
      vertex   -5.219414e+01 -8.861019e+01 -7.402336e+01
      vertex   -5.099420e+01 -8.860013e+01 -7.400780e+01
      vertex   -5.099420e+01 -8.863653e+01 -7.406171e+01
    endloop
  endfacet
  facet normal -3.434973e-04 8.191520e-01 -5.735764e-01
    outer loop
      vertex   -5.219414e+01 -8.861019e+01 -7.402336e+01
      vertex   -5.099420e+01 -8.863653e+01 -7.406171e+01
      vertex   -5.219414e+01 -8.864856e+01 -7.407816e+01
    endloop
  endfacet
  facet normal 3.298231e-04 7.957698e-01 -6.055991e-01
    outer loop
      vertex   -5.219414e+01 -8.864856e+01 -7.407816e+01
      vertex   -5.099420e+01 -8.863653e+01 -7.406171e+01
      vertex   -5.099420e+01 -8.867592e+01 -7.411346e+01
    endloop
  endfacet
  facet normal -3.598061e-04 7.844156e-01 -6.202355e-01
    outer loop
      vertex   -5.219414e+01 -8.864856e+01 -7.407816e+01
      vertex   -5.099420e+01 -8.867592e+01 -7.411346e+01
      vertex   -5.219414e+01 -8.869005e+01 -7.413063e+01
    endloop
  endfacet
  facet normal 3.448887e-04 7.602585e-01 -6.496206e-01
    outer loop
      vertex   -5.219414e+01 -8.869005e+01 -7.413063e+01
      vertex   -5.099420e+01 -8.867592e+01 -7.411346e+01
      vertex   -5.099420e+01 -8.871818e+01 -7.416291e+01
    endloop
  endfacet
  facet normal -3.736284e-04 7.470250e-01 -6.647958e-01
    outer loop
      vertex   -5.219414e+01 -8.869005e+01 -7.413063e+01
      vertex   -5.099420e+01 -8.871818e+01 -7.416291e+01
      vertex   -5.219414e+01 -8.873452e+01 -7.418060e+01
    endloop
  endfacet
  facet normal 3.574676e-04 7.223151e-01 -6.915640e-01
    outer loop
      vertex   -5.219414e+01 -8.873452e+01 -7.418060e+01
      vertex   -5.099420e+01 -8.871818e+01 -7.416291e+01
      vertex   -5.099420e+01 -8.876316e+01 -7.420990e+01
    endloop
  endfacet
  facet normal -3.849640e-04 7.071067e-01 -7.071067e-01
    outer loop
      vertex   -5.219414e+01 -8.873452e+01 -7.418060e+01
      vertex   -5.099420e+01 -8.876316e+01 -7.420990e+01
      vertex   -5.219414e+01 -8.878182e+01 -7.422790e+01
    endloop
  endfacet
  facet normal 3.675598e-04 6.820610e-01 -7.312952e-01
    outer loop
      vertex   -5.219414e+01 -8.878182e+01 -7.422790e+01
      vertex   -5.099420e+01 -8.876316e+01 -7.420990e+01
      vertex   -5.099420e+01 -8.881073e+01 -7.425426e+01
    endloop
  endfacet
  facet normal -3.938129e-04 6.647958e-01 -7.470250e-01
    outer loop
      vertex   -5.219414e+01 -8.878182e+01 -7.422790e+01
      vertex   -5.099420e+01 -8.881073e+01 -7.425426e+01
      vertex   -5.219414e+01 -8.883179e+01 -7.427238e+01
    endloop
  endfacet
  facet normal 3.751654e-04 6.396251e-01 -7.686869e-01
    outer loop
      vertex   -5.219414e+01 -8.883179e+01 -7.427238e+01
      vertex   -5.099420e+01 -8.881073e+01 -7.425426e+01
      vertex   -5.099420e+01 -8.886072e+01 -7.429586e+01
    endloop
  endfacet
  facet normal -4.001751e-04 6.202354e-01 -7.844156e-01
    outer loop
      vertex   -5.219414e+01 -8.883179e+01 -7.427238e+01
      vertex   -5.099420e+01 -8.886072e+01 -7.429586e+01
      vertex   -5.219414e+01 -8.888427e+01 -7.431387e+01
    endloop
  endfacet
  facet normal 3.802842e-04 5.951430e-01 -8.036197e-01
    outer loop
      vertex   -5.219414e+01 -8.888427e+01 -7.431387e+01
      vertex   -5.099420e+01 -8.886072e+01 -7.429586e+01
      vertex   -5.099420e+01 -8.891299e+01 -7.433457e+01
    endloop
  endfacet
  facet normal -4.040505e-04 5.735764e-01 -8.191520e-01
    outer loop
      vertex   -5.219414e+01 -8.888427e+01 -7.431387e+01
      vertex   -5.099420e+01 -8.891299e+01 -7.433457e+01
      vertex   -5.219414e+01 -8.893906e+01 -7.435224e+01
    endloop
  endfacet
  facet normal 3.829163e-04 5.487571e-01 -8.359817e-01
    outer loop
      vertex   -5.219414e+01 -8.893906e+01 -7.435224e+01
      vertex   -5.099420e+01 -8.891299e+01 -7.433457e+01
      vertex   -5.099420e+01 -8.896737e+01 -7.437027e+01
    endloop
  endfacet
  facet normal -4.054393e-04 5.249765e-01 -8.511166e-01
    outer loop
      vertex   -5.219414e+01 -8.893906e+01 -7.435224e+01
      vertex   -5.099420e+01 -8.896737e+01 -7.437027e+01
      vertex   -5.219414e+01 -8.899600e+01 -7.438735e+01
    endloop
  endfacet
  facet normal 3.830617e-04 5.006158e-01 -8.656695e-01
    outer loop
      vertex   -5.219414e+01 -8.899600e+01 -7.438735e+01
      vertex   -5.099420e+01 -8.896737e+01 -7.437027e+01
      vertex   -5.099420e+01 -8.902367e+01 -7.440283e+01
    endloop
  endfacet
  facet normal -4.043413e-04 4.746003e-01 -8.802013e-01
    outer loop
      vertex   -5.219414e+01 -8.899600e+01 -7.438735e+01
      vertex   -5.099420e+01 -8.902367e+01 -7.440283e+01
      vertex   -5.219414e+01 -8.905488e+01 -7.441910e+01
    endloop
  endfacet
  facet normal 3.807204e-04 4.508730e-01 -8.925880e-01
    outer loop
      vertex   -5.219414e+01 -8.905488e+01 -7.441910e+01
      vertex   -5.099420e+01 -8.902367e+01 -7.440283e+01
      vertex   -5.099420e+01 -8.908173e+01 -7.443215e+01
    endloop
  endfacet
  facet normal -4.007566e-04 4.226182e-01 -9.063077e-01
    outer loop
      vertex   -5.219414e+01 -8.905488e+01 -7.441910e+01
      vertex   -5.099420e+01 -8.908173e+01 -7.443215e+01
      vertex   -5.219414e+01 -8.911551e+01 -7.444737e+01
    endloop
  endfacet
  facet normal 3.758923e-04 3.996879e-01 -9.166512e-01
    outer loop
      vertex   -5.219414e+01 -8.911551e+01 -7.444737e+01
      vertex   -5.099420e+01 -8.908173e+01 -7.443215e+01
      vertex   -5.099420e+01 -8.914135e+01 -7.445815e+01
    endloop
  endfacet
  facet normal -3.946851e-04 3.692061e-01 -9.293475e-01
    outer loop
      vertex   -5.219414e+01 -8.911551e+01 -7.444737e+01
      vertex   -5.099420e+01 -8.914135e+01 -7.445815e+01
      vertex   -5.219414e+01 -8.917768e+01 -7.447207e+01
    endloop
  endfacet
  facet normal 3.685775e-04 3.472242e-01 -9.377821e-01
    outer loop
      vertex   -5.219414e+01 -8.917768e+01 -7.447207e+01
      vertex   -5.099420e+01 -8.914135e+01 -7.445815e+01
      vertex   -5.099420e+01 -8.920235e+01 -7.448073e+01
    endloop
  endfacet
  facet normal -3.861270e-04 3.145447e-01 -9.492426e-01
    outer loop
      vertex   -5.219414e+01 -8.917768e+01 -7.447207e+01
      vertex   -5.099420e+01 -8.920235e+01 -7.448073e+01
      vertex   -5.219414e+01 -8.924118e+01 -7.449311e+01
    endloop
  endfacet
  facet normal 3.587760e-04 2.936497e-01 -9.559130e-01
    outer loop
      vertex   -5.219414e+01 -8.924118e+01 -7.449311e+01
      vertex   -5.099420e+01 -8.920235e+01 -7.448073e+01
      vertex   -5.099420e+01 -8.926452e+01 -7.449983e+01
    endloop
  endfacet
  facet normal -3.750822e-04 2.588190e-01 -9.659258e-01
    outer loop
      vertex   -5.219414e+01 -8.924118e+01 -7.449311e+01
      vertex   -5.099420e+01 -8.926452e+01 -7.449983e+01
      vertex   -5.219414e+01 -8.930579e+01 -7.451043e+01
    endloop
  endfacet
  facet normal 3.464879e-04 2.391359e-01 -9.709860e-01
    outer loop
      vertex   -5.219414e+01 -8.930579e+01 -7.451043e+01
      vertex   -5.099420e+01 -8.926452e+01 -7.449983e+01
      vertex   -5.099420e+01 -8.932768e+01 -7.451539e+01
    endloop
  endfacet
  facet normal -3.615507e-04 2.022176e-01 -9.793406e-01
    outer loop
      vertex   -5.219414e+01 -8.930579e+01 -7.451043e+01
      vertex   -5.099420e+01 -8.932768e+01 -7.451539e+01
      vertex   -5.219414e+01 -8.937130e+01 -7.452395e+01
    endloop
  endfacet
  facet normal 3.317131e-04 1.838571e-01 -9.829529e-01
    outer loop
      vertex   -5.219414e+01 -8.937130e+01 -7.452395e+01
      vertex   -5.099420e+01 -8.932768e+01 -7.451539e+01
      vertex   -5.099420e+01 -8.939161e+01 -7.452735e+01
    endloop
  endfacet
  facet normal -3.455326e-04 1.449319e-01 -9.894416e-01
    outer loop
      vertex   -5.219414e+01 -8.937130e+01 -7.452395e+01
      vertex   -5.099420e+01 -8.939161e+01 -7.452735e+01
      vertex   -5.219414e+01 -8.943749e+01 -7.453365e+01
    endloop
  endfacet
  facet normal 3.144517e-04 1.279902e-01 -9.917754e-01
    outer loop
      vertex   -5.219414e+01 -8.943749e+01 -7.453365e+01
      vertex   -5.099420e+01 -8.939161e+01 -7.452735e+01
      vertex   -5.099420e+01 -8.945612e+01 -7.453567e+01
    endloop
  endfacet
  facet normal -3.270279e-04 8.715574e-02 -9.961946e-01
    outer loop
      vertex   -5.219414e+01 -8.943749e+01 -7.453365e+01
      vertex   -5.099420e+01 -8.945612e+01 -7.453567e+01
      vertex   -5.219414e+01 -8.950413e+01 -7.453948e+01
    endloop
  endfacet
  facet normal 1.000000e+00 0.000000e+00 0.000000e+00
    outer loop
      vertex   -5.099420e+01 -8.842284e+01 -7.122641e+01
      vertex   -5.099420e+01 -8.842835e+01 -7.116160e+01
      vertex   -5.099420e+01 -8.842100e+01 -7.129142e+01
    endloop
  endfacet
  facet normal 1.000000e+00 0.000000e+00 0.000000e+00
    outer loop
      vertex   -5.099420e+01 -8.842100e+01 -7.129142e+01
      vertex   -5.099420e+01 -8.842835e+01 -7.116160e+01
      vertex   -5.099420e+01 -8.843752e+01 -7.109720e+01
    endloop
  endfacet
  facet normal 1.000000e+00 0.000000e+00 0.000000e+00
    outer loop
      vertex   -5.099420e+01 -8.842100e+01 -7.129142e+01
      vertex   -5.099420e+01 -8.843752e+01 -7.109720e+01
      vertex   -5.099420e+01 -8.845031e+01 -7.103343e+01
    endloop
  endfacet
  facet normal 1.000000e+00 0.000000e+00 0.000000e+00
    outer loop
      vertex   -5.099420e+01 -8.845031e+01 -7.103343e+01
      vertex   -5.099420e+01 -8.846669e+01 -7.097048e+01
      vertex   -5.099420e+01 -8.842100e+01 -7.129142e+01
    endloop
  endfacet
  facet normal 1.000000e+00 0.000000e+00 0.000000e+00
    outer loop
      vertex   -5.099420e+01 -8.842100e+01 -7.129142e+01
      vertex   -5.099420e+01 -8.846669e+01 -7.097048e+01
      vertex   -5.099420e+01 -8.848660e+01 -7.090856e+01
    endloop
  endfacet
  facet normal 1.000000e+00 0.000000e+00 0.000000e+00
    outer loop
      vertex   -5.099420e+01 -8.842100e+01 -7.129142e+01
      vertex   -5.099420e+01 -8.848660e+01 -7.090856e+01
      vertex   -5.099420e+01 -8.850998e+01 -7.084787e+01
    endloop
  endfacet
  facet normal 1.000000e+00 0.000000e+00 0.000000e+00
    outer loop
      vertex   -5.099420e+01 -8.850998e+01 -7.084787e+01
      vertex   -5.099420e+01 -8.853676e+01 -7.078859e+01
      vertex   -5.099420e+01 -8.842100e+01 -7.129142e+01
    endloop
  endfacet
  facet normal 1.000000e+00 0.000000e+00 0.000000e+00
    outer loop
      vertex   -5.099420e+01 -8.842100e+01 -7.129142e+01
      vertex   -5.099420e+01 -8.853676e+01 -7.078859e+01
      vertex   -5.099420e+01 -8.856684e+01 -7.073092e+01
    endloop
  endfacet
  facet normal 1.000000e+00 0.000000e+00 0.000000e+00
    outer loop
      vertex   -5.099420e+01 -8.842100e+01 -7.129142e+01
      vertex   -5.099420e+01 -8.856684e+01 -7.073092e+01
      vertex   -5.099420e+01 -8.860013e+01 -7.067505e+01
    endloop
  endfacet
  facet normal 1.000000e+00 0.000000e+00 0.000000e+00
    outer loop
      vertex   -5.099420e+01 -8.860013e+01 -7.067505e+01
      vertex   -5.099420e+01 -8.863653e+01 -7.062114e+01
      vertex   -5.099420e+01 -8.842100e+01 -7.129142e+01
    endloop
  endfacet
  facet normal 1.000000e+00 0.000000e+00 0.000000e+00
    outer loop
      vertex   -5.099420e+01 -8.842100e+01 -7.129142e+01
      vertex   -5.099420e+01 -8.863653e+01 -7.062114e+01
      vertex   -5.099420e+01 -8.863653e+01 -7.406171e+01
    endloop
  endfacet
  facet normal 1.000000e+00 0.000000e+00 0.000000e+00
    outer loop
      vertex   -5.099420e+01 -8.842100e+01 -7.129142e+01
      vertex   -5.099420e+01 -8.863653e+01 -7.406171e+01
      vertex   -5.099420e+01 -8.842100e+01 -7.339142e+01
    endloop
  endfacet
  facet normal 1.000000e+00 0.000000e+00 0.000000e+00
    outer loop
      vertex   -5.099420e+01 -8.842100e+01 -7.339142e+01
      vertex   -5.099420e+01 -8.863653e+01 -7.406171e+01
      vertex   -5.099420e+01 -8.860013e+01 -7.400780e+01
    endloop
  endfacet
  facet normal 1.000000e+00 0.000000e+00 0.000000e+00
    outer loop
      vertex   -5.099420e+01 -8.842100e+01 -7.339142e+01
      vertex   -5.099420e+01 -8.860013e+01 -7.400780e+01
      vertex   -5.099420e+01 -8.856684e+01 -7.395193e+01
    endloop
  endfacet
  facet normal 1.000000e+00 0.000000e+00 -0.000000e+00
    outer loop
      vertex   -5.099420e+01 -8.863653e+01 -7.406171e+01
      vertex   -5.099420e+01 -8.863653e+01 -7.062114e+01
      vertex   -5.099420e+01 -8.867592e+01 -7.411346e+01
    endloop
  endfacet
  facet normal 1.000000e+00 0.000000e+00 0.000000e+00
    outer loop
      vertex   -5.099420e+01 -8.867592e+01 -7.411346e+01
      vertex   -5.099420e+01 -8.863653e+01 -7.062114e+01
      vertex   -5.099420e+01 -8.867592e+01 -7.056938e+01
    endloop
  endfacet
  facet normal 1.000000e+00 0.000000e+00 -0.000000e+00
    outer loop
      vertex   -5.099420e+01 -8.867592e+01 -7.411346e+01
      vertex   -5.099420e+01 -8.867592e+01 -7.056938e+01
      vertex   -5.099420e+01 -8.871818e+01 -7.416291e+01
    endloop
  endfacet
  facet normal 1.000000e+00 0.000000e+00 0.000000e+00
    outer loop
      vertex   -5.099420e+01 -8.871818e+01 -7.416291e+01
      vertex   -5.099420e+01 -8.867592e+01 -7.056938e+01
      vertex   -5.099420e+01 -8.871818e+01 -7.051993e+01
    endloop
  endfacet
  facet normal 1.000000e+00 0.000000e+00 -0.000000e+00
    outer loop
      vertex   -5.099420e+01 -8.871818e+01 -7.416291e+01
      vertex   -5.099420e+01 -8.871818e+01 -7.051993e+01
      vertex   -5.099420e+01 -8.876316e+01 -7.420990e+01
    endloop
  endfacet
  facet normal 1.000000e+00 0.000000e+00 -0.000000e+00
    outer loop
      vertex   -5.099420e+01 -8.876316e+01 -7.420990e+01
      vertex   -5.099420e+01 -8.871818e+01 -7.051993e+01
      vertex   -5.099420e+01 -8.876316e+01 -7.047295e+01
    endloop
  endfacet
  facet normal 1.000000e+00 0.000000e+00 0.000000e+00
    outer loop
      vertex   -5.099420e+01 -8.876316e+01 -7.420990e+01
      vertex   -5.099420e+01 -8.876316e+01 -7.047295e+01
      vertex   -5.099420e+01 -8.881073e+01 -7.425426e+01
    endloop
  endfacet
  facet normal 1.000000e+00 0.000000e+00 0.000000e+00
    outer loop
      vertex   -5.099420e+01 -8.881073e+01 -7.425426e+01
      vertex   -5.099420e+01 -8.876316e+01 -7.047295e+01
      vertex   -5.099420e+01 -8.881073e+01 -7.042859e+01
    endloop
  endfacet
  facet normal 1.000000e+00 0.000000e+00 -0.000000e+00
    outer loop
      vertex   -5.099420e+01 -8.881073e+01 -7.425426e+01
      vertex   -5.099420e+01 -8.881073e+01 -7.042859e+01
      vertex   -5.099420e+01 -8.886072e+01 -7.429586e+01
    endloop
  endfacet
  facet normal 1.000000e+00 0.000000e+00 0.000000e+00
    outer loop
      vertex   -5.099420e+01 -8.886072e+01 -7.429586e+01
      vertex   -5.099420e+01 -8.881073e+01 -7.042859e+01
      vertex   -5.099420e+01 -8.886072e+01 -7.038699e+01
    endloop
  endfacet
  facet normal 1.000000e+00 0.000000e+00 -0.000000e+00
    outer loop
      vertex   -5.099420e+01 -8.886072e+01 -7.429586e+01
      vertex   -5.099420e+01 -8.886072e+01 -7.038699e+01
      vertex   -5.099420e+01 -8.891299e+01 -7.433457e+01
    endloop
  endfacet
  facet normal 1.000000e+00 0.000000e+00 0.000000e+00
    outer loop
      vertex   -5.099420e+01 -8.891299e+01 -7.433457e+01
      vertex   -5.099420e+01 -8.886072e+01 -7.038699e+01
      vertex   -5.099420e+01 -8.891299e+01 -7.034828e+01
    endloop
  endfacet
  facet normal 1.000000e+00 0.000000e+00 -0.000000e+00
    outer loop
      vertex   -5.099420e+01 -8.891299e+01 -7.433457e+01
      vertex   -5.099420e+01 -8.891299e+01 -7.034828e+01
      vertex   -5.099420e+01 -8.896737e+01 -7.437027e+01
    endloop
  endfacet
  facet normal 1.000000e+00 0.000000e+00 -0.000000e+00
    outer loop
      vertex   -5.099420e+01 -8.896737e+01 -7.437027e+01
      vertex   -5.099420e+01 -8.891299e+01 -7.034828e+01
      vertex   -5.099420e+01 -8.902367e+01 -7.440283e+01
    endloop
  endfacet
  facet normal 1.000000e+00 0.000000e+00 -0.000000e+00
    outer loop
      vertex   -5.099420e+01 -8.902367e+01 -7.440283e+01
      vertex   -5.099420e+01 -8.891299e+01 -7.034828e+01
      vertex   -5.099420e+01 -8.908173e+01 -7.443215e+01
    endloop
  endfacet
  facet normal 1.000000e+00 0.000000e+00 -0.000000e+00
    outer loop
      vertex   -5.099420e+01 -8.908173e+01 -7.443215e+01
      vertex   -5.099420e+01 -8.891299e+01 -7.034828e+01
      vertex   -5.099420e+01 -8.914135e+01 -7.445815e+01
    endloop
  endfacet
  facet normal 1.000000e+00 0.000000e+00 -0.000000e+00
    outer loop
      vertex   -5.099420e+01 -8.914135e+01 -7.445815e+01
      vertex   -5.099420e+01 -8.891299e+01 -7.034828e+01
      vertex   -5.099420e+01 -8.920235e+01 -7.448073e+01
    endloop
  endfacet
  facet normal 1.000000e+00 0.000000e+00 -0.000000e+00
    outer loop
      vertex   -5.099420e+01 -8.920235e+01 -7.448073e+01
      vertex   -5.099420e+01 -8.891299e+01 -7.034828e+01
      vertex   -5.099420e+01 -8.952100e+01 -7.014251e+01
    endloop
  endfacet
  facet normal 1.000000e+00 0.000000e+00 0.000000e+00
    outer loop
      vertex   -5.099420e+01 -8.920235e+01 -7.448073e+01
      vertex   -5.099420e+01 -8.952100e+01 -7.014251e+01
      vertex   -5.099420e+01 -8.926452e+01 -7.449983e+01
    endloop
  endfacet
  facet normal 1.000000e+00 0.000000e+00 0.000000e+00
    outer loop
      vertex   -5.099420e+01 -8.926452e+01 -7.449983e+01
      vertex   -5.099420e+01 -8.952100e+01 -7.014251e+01
      vertex   -5.099420e+01 -8.932768e+01 -7.451539e+01
    endloop
  endfacet
  facet normal 1.000000e+00 0.000000e+00 0.000000e+00
    outer loop
      vertex   -5.099420e+01 -8.932768e+01 -7.451539e+01
      vertex   -5.099420e+01 -8.952100e+01 -7.014251e+01
      vertex   -5.099420e+01 -8.939161e+01 -7.452735e+01
    endloop
  endfacet
  facet normal 1.000000e+00 0.000000e+00 0.000000e+00
    outer loop
      vertex   -5.099420e+01 -8.939161e+01 -7.452735e+01
      vertex   -5.099420e+01 -8.952100e+01 -7.014251e+01
      vertex   -5.099420e+01 -8.945612e+01 -7.453567e+01
    endloop
  endfacet
  facet normal 1.000000e+00 0.000000e+00 0.000000e+00
    outer loop
      vertex   -5.099420e+01 -8.945612e+01 -7.453567e+01
      vertex   -5.099420e+01 -8.952100e+01 -7.014251e+01
      vertex   -5.099420e+01 -8.952100e+01 -7.454034e+01
    endloop
  endfacet
  facet normal 1.000000e+00 0.000000e+00 0.000000e+00
    outer loop
      vertex   -5.099420e+01 -8.891299e+01 -7.034828e+01
      vertex   -5.099420e+01 -8.896737e+01 -7.031258e+01
      vertex   -5.099420e+01 -8.952100e+01 -7.014251e+01
    endloop
  endfacet
  facet normal 1.000000e+00 0.000000e+00 0.000000e+00
    outer loop
      vertex   -5.099420e+01 -8.952100e+01 -7.014251e+01
      vertex   -5.099420e+01 -8.896737e+01 -7.031258e+01
      vertex   -5.099420e+01 -8.902367e+01 -7.028002e+01
    endloop
  endfacet
  facet normal 1.000000e+00 0.000000e+00 0.000000e+00
    outer loop
      vertex   -5.099420e+01 -8.952100e+01 -7.014251e+01
      vertex   -5.099420e+01 -8.902367e+01 -7.028002e+01
      vertex   -5.099420e+01 -8.908173e+01 -7.025070e+01
    endloop
  endfacet
  facet normal 1.000000e+00 0.000000e+00 0.000000e+00
    outer loop
      vertex   -5.099420e+01 -8.908173e+01 -7.025070e+01
      vertex   -5.099420e+01 -8.914135e+01 -7.022470e+01
      vertex   -5.099420e+01 -8.952100e+01 -7.014251e+01
    endloop
  endfacet
  facet normal 1.000000e+00 0.000000e+00 0.000000e+00
    outer loop
      vertex   -5.099420e+01 -8.952100e+01 -7.014251e+01
      vertex   -5.099420e+01 -8.914135e+01 -7.022470e+01
      vertex   -5.099420e+01 -8.920235e+01 -7.020211e+01
    endloop
  endfacet
  facet normal 1.000000e+00 0.000000e+00 0.000000e+00
    outer loop
      vertex   -5.099420e+01 -8.952100e+01 -7.014251e+01
      vertex   -5.099420e+01 -8.920235e+01 -7.020211e+01
      vertex   -5.099420e+01 -8.926452e+01 -7.018301e+01
    endloop
  endfacet
  facet normal 1.000000e+00 0.000000e+00 0.000000e+00
    outer loop
      vertex   -5.099420e+01 -8.926452e+01 -7.018301e+01
      vertex   -5.099420e+01 -8.932768e+01 -7.016746e+01
      vertex   -5.099420e+01 -8.952100e+01 -7.014251e+01
    endloop
  endfacet
  facet normal 1.000000e+00 0.000000e+00 0.000000e+00
    outer loop
      vertex   -5.099420e+01 -8.952100e+01 -7.014251e+01
      vertex   -5.099420e+01 -8.932768e+01 -7.016746e+01
      vertex   -5.099420e+01 -8.939161e+01 -7.015550e+01
    endloop
  endfacet
  facet normal 1.000000e+00 0.000000e+00 0.000000e+00
    outer loop
      vertex   -5.099420e+01 -8.952100e+01 -7.014251e+01
      vertex   -5.099420e+01 -8.939161e+01 -7.015550e+01
      vertex   -5.099420e+01 -8.945612e+01 -7.014718e+01
    endloop
  endfacet
  facet normal 1.000000e+00 0.000000e+00 0.000000e+00
    outer loop
      vertex   -5.099420e+01 -8.856684e+01 -7.395193e+01
      vertex   -5.099420e+01 -8.853676e+01 -7.389426e+01
      vertex   -5.099420e+01 -8.842100e+01 -7.339142e+01
    endloop
  endfacet
  facet normal 1.000000e+00 0.000000e+00 0.000000e+00
    outer loop
      vertex   -5.099420e+01 -8.842100e+01 -7.339142e+01
      vertex   -5.099420e+01 -8.853676e+01 -7.389426e+01
      vertex   -5.099420e+01 -8.850998e+01 -7.383498e+01
    endloop
  endfacet
  facet normal 1.000000e+00 0.000000e+00 0.000000e+00
    outer loop
      vertex   -5.099420e+01 -8.842100e+01 -7.339142e+01
      vertex   -5.099420e+01 -8.850998e+01 -7.383498e+01
      vertex   -5.099420e+01 -8.848660e+01 -7.377429e+01
    endloop
  endfacet
  facet normal 1.000000e+00 0.000000e+00 0.000000e+00
    outer loop
      vertex   -5.099420e+01 -8.848660e+01 -7.377429e+01
      vertex   -5.099420e+01 -8.846669e+01 -7.371236e+01
      vertex   -5.099420e+01 -8.842100e+01 -7.339142e+01
    endloop
  endfacet
  facet normal 1.000000e+00 0.000000e+00 0.000000e+00
    outer loop
      vertex   -5.099420e+01 -8.842100e+01 -7.339142e+01
      vertex   -5.099420e+01 -8.846669e+01 -7.371236e+01
      vertex   -5.099420e+01 -8.845031e+01 -7.364942e+01
    endloop
  endfacet
  facet normal 1.000000e+00 0.000000e+00 0.000000e+00
    outer loop
      vertex   -5.099420e+01 -8.842100e+01 -7.339142e+01
      vertex   -5.099420e+01 -8.845031e+01 -7.364942e+01
      vertex   -5.099420e+01 -8.843752e+01 -7.358564e+01
    endloop
  endfacet
  facet normal 1.000000e+00 0.000000e+00 0.000000e+00
    outer loop
      vertex   -5.099420e+01 -8.843752e+01 -7.358564e+01
      vertex   -5.099420e+01 -8.842835e+01 -7.352125e+01
      vertex   -5.099420e+01 -8.842100e+01 -7.339142e+01
    endloop
  endfacet
  facet normal 1.000000e+00 0.000000e+00 0.000000e+00
    outer loop
      vertex   -5.099420e+01 -8.842100e+01 -7.339142e+01
      vertex   -5.099420e+01 -8.842835e+01 -7.352125e+01
      vertex   -5.099420e+01 -8.842284e+01 -7.345644e+01
    endloop
  endfacet
  facet normal -0.000000e+00 1.000000e+00 0.000000e+00
    outer loop
      vertex   -5.562718e+01 -9.198208e+01 -7.014142e+01
      vertex   -5.339408e+01 -9.198208e+01 -7.014142e+01
      vertex   -5.562718e+01 -9.198208e+01 -7.454142e+01
    endloop
  endfacet
  facet normal 0.000000e+00 1.000000e+00 0.000000e+00
    outer loop
      vertex   -5.562718e+01 -9.198208e+01 -7.454142e+01
      vertex   -5.339408e+01 -9.198208e+01 -7.014142e+01
      vertex   -5.339408e+01 -9.198208e+01 -7.454142e+01
    endloop
  endfacet
  facet normal -1.000000e+00 0.000000e+00 0.000000e+00
    outer loop
      vertex   -5.562718e+01 -9.338208e+01 -7.014142e+01
      vertex   -5.562718e+01 -9.198208e+01 -7.014142e+01
      vertex   -5.562718e+01 -9.338208e+01 -7.454142e+01
    endloop
  endfacet
  facet normal -1.000000e+00 0.000000e+00 0.000000e+00
    outer loop
      vertex   -5.562718e+01 -9.338208e+01 -7.454142e+01
      vertex   -5.562718e+01 -9.198208e+01 -7.014142e+01
      vertex   -5.562718e+01 -9.198208e+01 -7.454142e+01
    endloop
  endfacet
  facet normal -0.000000e+00 -1.000000e+00 -0.000000e+00
    outer loop
      vertex   -4.862718e+01 -9.338208e+01 -7.014142e+01
      vertex   -5.562718e+01 -9.338208e+01 -7.014142e+01
      vertex   -4.862718e+01 -9.338208e+01 -7.454142e+01
    endloop
  endfacet
  facet normal 0.000000e+00 -1.000000e+00 0.000000e+00
    outer loop
      vertex   -4.862718e+01 -9.338208e+01 -7.454142e+01
      vertex   -5.562718e+01 -9.338208e+01 -7.014142e+01
      vertex   -5.562718e+01 -9.338208e+01 -7.454142e+01
    endloop
  endfacet
  facet normal 1.000000e+00 0.000000e+00 0.000000e+00
    outer loop
      vertex   -4.862718e+01 -9.198208e+01 -7.014142e+01
      vertex   -4.862718e+01 -9.338208e+01 -7.014142e+01
      vertex   -4.862718e+01 -9.198208e+01 -7.454142e+01
    endloop
  endfacet
  facet normal 1.000000e+00 0.000000e+00 0.000000e+00
    outer loop
      vertex   -4.862718e+01 -9.198208e+01 -7.454142e+01
      vertex   -4.862718e+01 -9.338208e+01 -7.014142e+01
      vertex   -4.862718e+01 -9.338208e+01 -7.454142e+01
    endloop
  endfacet
  facet normal -0.000000e+00 1.000000e+00 0.000000e+00
    outer loop
      vertex   -5.099408e+01 -9.198208e+01 -7.014142e+01
      vertex   -4.862718e+01 -9.198208e+01 -7.014142e+01
      vertex   -5.099408e+01 -9.198208e+01 -7.454142e+01
    endloop
  endfacet
  facet normal 0.000000e+00 1.000000e+00 0.000000e+00
    outer loop
      vertex   -5.099408e+01 -9.198208e+01 -7.454142e+01
      vertex   -4.862718e+01 -9.198208e+01 -7.014142e+01
      vertex   -4.862718e+01 -9.198208e+01 -7.454142e+01
    endloop
  endfacet
  facet normal 1.000000e+00 0.000000e+00 0.000000e+00
    outer loop
      vertex   -5.099408e+01 -9.175154e+01 -7.014142e+01
      vertex   -5.099408e+01 -9.198208e+01 -7.014142e+01
      vertex   -5.099408e+01 -9.175154e+01 -7.454142e+01
    endloop
  endfacet
  facet normal 1.000000e+00 0.000000e+00 0.000000e+00
    outer loop
      vertex   -5.099408e+01 -9.175154e+01 -7.454142e+01
      vertex   -5.099408e+01 -9.198208e+01 -7.014142e+01
      vertex   -5.099408e+01 -9.198208e+01 -7.454142e+01
    endloop
  endfacet
  facet normal -2.312160e-10 -2.544868e-10 -1.000000e+00
    outer loop
      vertex   -5.099420e+01 -8.957100e+01 -7.454142e+01
      vertex   -5.099408e+01 -9.175154e+01 -7.454142e+01
      vertex   -5.339408e+01 -8.957100e+01 -7.454142e+01
    endloop
  endfacet
  facet normal 0.000000e+00 0.000000e+00 -1.000000e+00
    outer loop
      vertex   -5.339408e+01 -8.957100e+01 -7.454142e+01
      vertex   -5.099408e+01 -9.175154e+01 -7.454142e+01
      vertex   -5.339408e+01 -9.198208e+01 -7.454142e+01
    endloop
  endfacet
  facet normal 0.000000e+00 0.000000e+00 -1.000000e+00
    outer loop
      vertex   -5.339408e+01 -9.198208e+01 -7.454142e+01
      vertex   -5.099408e+01 -9.175154e+01 -7.454142e+01
      vertex   -5.099408e+01 -9.198208e+01 -7.454142e+01
    endloop
  endfacet
  facet normal 0.000000e+00 -0.000000e+00 -1.000000e+00
    outer loop
      vertex   -5.339408e+01 -9.198208e+01 -7.454142e+01
      vertex   -5.099408e+01 -9.198208e+01 -7.454142e+01
      vertex   -5.562718e+01 -9.338208e+01 -7.454142e+01
    endloop
  endfacet
  facet normal 0.000000e+00 0.000000e+00 -1.000000e+00
    outer loop
      vertex   -5.562718e+01 -9.338208e+01 -7.454142e+01
      vertex   -5.099408e+01 -9.198208e+01 -7.454142e+01
      vertex   -4.862718e+01 -9.338208e+01 -7.454142e+01
    endloop
  endfacet
  facet normal 0.000000e+00 0.000000e+00 -1.000000e+00
    outer loop
      vertex   -4.862718e+01 -9.338208e+01 -7.454142e+01
      vertex   -5.099408e+01 -9.198208e+01 -7.454142e+01
      vertex   -4.862718e+01 -9.198208e+01 -7.454142e+01
    endloop
  endfacet
  facet normal 0.000000e+00 0.000000e+00 -1.000000e+00
    outer loop
      vertex   -5.562718e+01 -9.338208e+01 -7.454142e+01
      vertex   -5.562718e+01 -9.198208e+01 -7.454142e+01
      vertex   -5.339408e+01 -9.198208e+01 -7.454142e+01
    endloop
  endfacet
endsolid
